<svg xmlns="http://www.w3.org/2000/svg" xmlns:xlink="http://www.w3.org/1999/xlink" width="500" zoomAndPan="magnify" viewBox="0 0 375 262.499992" height="350" preserveAspectRatio="xMidYMid meet" version="1.0"><defs><g/><clipPath id="71ca60753d"><path d="M 1 0.75 L 374 0.75 L 374 5 L 1 5 Z M 1 0.75 " clip-rule="nonzero"/></clipPath><clipPath id="21e427c322"><path d="M 372 1 L 374.640625 1 L 374.640625 261 L 372 261 Z M 372 1 " clip-rule="nonzero"/></clipPath><clipPath id="d3c87a6ab9"><path d="M 0.355469 1 L 2 1 L 2 261 L 0.355469 261 Z M 0.355469 1 " clip-rule="nonzero"/></clipPath></defs><path fill="#0f52ba" d="M 1.644531 260.550781 C 2.164062 260.59375 2.671875 260.648438 3.203125 260.683594 C 6.050781 260.855469 8.894531 261.160156 11.742188 261.160156 C 20.0625 261.210938 28.378906 261.230469 36.695312 261.085938 C 42.609375 260.984375 48.519531 260.609375 54.429688 260.347656 C 65.773438 259.863281 77.125 259.667969 88.480469 259.558594 C 92.574219 259.515625 96.664062 259.238281 100.757812 259.097656 C 103.976562 258.992188 107.191406 258.910156 110.40625 258.847656 C 117.480469 258.714844 124.550781 258.648438 131.617188 258.46875 C 138.832031 258.285156 146.070312 258.332031 153.289062 258.554688 C 157.71875 258.6875 162.144531 258.933594 166.578125 259.066406 C 171.707031 259.230469 176.832031 259.355469 181.960938 259.472656 C 189.367188 259.644531 196.769531 259.472656 204.171875 259.242188 C 209.527344 259.070312 214.914062 258.796875 220.261719 258.648438 C 225.816406 258.496094 231.371094 258.347656 236.921875 258.371094 C 242.964844 258.394531 249 258.632812 255.039062 258.75 C 258.773438 258.820312 262.503906 258.796875 266.238281 258.886719 C 270.414062 258.988281 274.609375 259.175781 278.796875 259.304688 C 282.679688 259.421875 286.5625 259.535156 290.445312 259.609375 C 295.453125 259.707031 300.460938 259.691406 305.46875 259.84375 C 312.113281 260.039062 318.753906 260.300781 325.398438 260.625 C 337.378906 261.214844 349.363281 261.34375 361.355469 261.203125 C 364.417969 261.164062 367.480469 260.972656 370.542969 260.824219 C 371.472656 260.777344 372.398438 260.625 373.425781 260.515625 C 373.230469 260.984375 372.882812 260.992188 372.589844 261.035156 C 371.628906 261.164062 370.664062 261.316406 369.695312 261.371094 C 366.71875 261.539062 363.746094 261.726562 360.777344 261.757812 C 351.855469 261.851562 342.933594 261.929688 334.007812 261.90625 C 330.367188 261.90625 326.730469 261.589844 323.089844 261.445312 C 319.058594 261.28125 315.027344 261.101562 310.992188 261.011719 C 303.101562 260.839844 295.210938 260.75 287.320312 260.570312 C 283.710938 260.492188 280.105469 260.246094 276.496094 260.140625 C 270.800781 259.972656 265.105469 259.851562 259.382812 259.730469 C 252.222656 259.578125 245.0625 259.414062 237.898438 259.320312 C 234.101562 259.269531 230.304688 259.320312 226.507812 259.390625 C 223.621094 259.433594 220.742188 259.515625 217.859375 259.617188 C 214.3125 259.746094 210.765625 260 207.226562 260.058594 C 201.34375 260.179688 195.457031 260.207031 189.570312 260.273438 C 187.203125 259.890625 184.847656 260.328125 182.484375 260.332031 C 175.410156 260.332031 168.34375 260.082031 161.28125 259.804688 C 153.546875 259.5 145.8125 259.203125 138.070312 259.296875 C 132.878906 259.363281 127.6875 259.492188 122.503906 259.578125 C 117.128906 259.667969 111.757812 259.707031 106.390625 259.835938 C 102.972656 259.917969 99.535156 260.101562 96.109375 260.28125 C 88.742188 260.660156 81.367188 260.597656 73.992188 260.714844 C 69.226562 260.78125 64.464844 261 59.699219 261.160156 C 57.488281 261.234375 55.273438 261.320312 53.058594 261.414062 C 49.574219 261.566406 46.089844 261.820312 42.601562 261.871094 C 36.898438 261.945312 31.191406 261.917969 25.484375 261.898438 C 21.078125 261.875 16.675781 261.816406 12.277344 261.722656 C 9.0625 261.695312 5.863281 261.476562 2.671875 261.070312 C 2.308594 260.996094 1.949219 260.898438 1.59375 260.78125 Z M 1.644531 260.550781 " fill-opacity="1" fill-rule="nonzero"/><path fill="#0f52ba" d="M 4.820312 6.699219 C 5.136719 6.660156 5.449219 6.605469 5.761719 6.59375 C 11.011719 6.402344 16.253906 6.214844 21.5 6.042969 C 26.507812 5.886719 31.511719 5.75 36.515625 5.632812 C 41.453125 5.511719 46.410156 5.464844 51.359375 5.296875 C 60.796875 4.964844 70.234375 4.839844 79.675781 4.914062 C 85.320312 4.957031 90.96875 5.054688 96.613281 5.199219 C 101.617188 5.328125 106.621094 5.554688 111.625 5.75 C 115.871094 5.914062 120.113281 6.0625 124.355469 6.289062 C 135.972656 6.910156 147.597656 6.824219 159.226562 6.886719 C 167.390625 6.925781 175.550781 6.933594 183.722656 6.972656 C 184.929688 6.972656 186.15625 6.875 187.324219 7.3125 C 187.414062 7.34375 187.503906 7.34375 187.589844 7.3125 C 188.878906 6.835938 190.226562 6.960938 191.554688 6.957031 C 205.0625 6.898438 218.574219 6.871094 232.082031 6.796875 C 236.207031 6.777344 240.335938 6.679688 244.464844 6.550781 C 248.675781 6.417969 252.890625 6.171875 257.105469 6.019531 C 261.808594 5.828125 266.507812 5.671875 271.207031 5.464844 C 281.09375 5.03125 290.988281 4.839844 300.882812 4.890625 C 307.925781 4.917969 314.96875 5.050781 322.007812 5.191406 C 329.324219 5.335938 336.632812 5.542969 343.945312 5.714844 C 346.742188 5.785156 349.53125 5.820312 352.320312 5.921875 C 357.417969 6.109375 362.507812 6.339844 367.605469 6.542969 C 368.148438 6.566406 368.699219 6.542969 369.242188 6.570312 C 369.53125 6.570312 369.820312 6.628906 370.328125 6.679688 C 370.039062 6.90625 369.925781 7.058594 369.796875 7.058594 C 369.375 7.109375 368.953125 7.132812 368.527344 7.121094 C 364.917969 7.023438 361.308594 6.917969 357.699219 6.808594 C 355 6.730469 352.300781 6.621094 349.601562 6.550781 C 344.589844 6.429688 339.582031 6.320312 334.578125 6.222656 C 330.484375 6.136719 326.386719 6.054688 322.285156 6 C 315.15625 5.914062 308.019531 5.816406 300.886719 5.789062 C 295.730469 5.765625 290.566406 5.804688 285.402344 5.910156 C 279.761719 6.023438 274.121094 6.242188 268.476562 6.4375 C 263.867188 6.597656 259.253906 6.734375 254.648438 6.984375 C 239.460938 7.808594 224.253906 7.828125 209.046875 7.863281 C 202.703125 7.863281 196.359375 7.957031 190.011719 7.996094 C 189.230469 7.996094 188.429688 8.140625 187.683594 7.769531 C 187.566406 7.71875 187.453125 7.71875 187.335938 7.769531 C 186.648438 8.148438 185.910156 8.015625 185.191406 8.011719 C 173.378906 7.960938 161.570312 7.898438 149.765625 7.824219 C 145.238281 7.792969 140.714844 7.746094 136.195312 7.628906 C 131.3125 7.5 126.429688 7.277344 121.546875 7.089844 C 116.988281 6.917969 112.433594 6.710938 107.898438 6.554688 C 101.863281 6.335938 95.832031 6.089844 89.792969 5.929688 C 85.816406 5.824219 81.820312 5.816406 77.863281 5.824219 C 70.578125 5.824219 63.292969 5.839844 56.007812 5.921875 C 50.027344 5.980469 44.046875 6.132812 38.070312 6.261719 C 32.515625 6.394531 26.972656 6.527344 21.410156 6.691406 C 17.679688 6.800781 13.953125 7.007812 10.222656 7.136719 C 8.734375 7.1875 7.246094 7.136719 5.757812 7.136719 C 5.445312 7.109375 5.132812 7.066406 4.820312 7 Z M 4.820312 6.699219 " fill-opacity="1" fill-rule="nonzero"/><g clip-path="url(#71ca60753d)"><path fill="#0f52ba" d="M 1.554688 1.839844 C 1.820312 1.386719 2.222656 1.410156 2.550781 1.371094 C 3.847656 1.214844 5.144531 1.023438 6.441406 0.988281 C 10.808594 0.835938 15.175781 0.667969 19.550781 0.640625 C 27.832031 0.585938 36.121094 0.585938 44.40625 0.640625 C 47.824219 0.671875 51.195312 0.949219 54.59375 1.097656 C 57.015625 1.199219 59.445312 1.246094 61.871094 1.359375 C 71.332031 1.785156 80.804688 1.679688 90.277344 1.914062 C 93.546875 1.996094 96.820312 2.242188 100.09375 2.371094 C 102.976562 2.488281 105.859375 2.582031 108.738281 2.628906 C 113.867188 2.71875 118.992188 2.757812 124.128906 2.828125 C 131.015625 2.921875 137.90625 3.109375 144.792969 3.09375 C 149.859375 3.09375 154.925781 2.816406 159.980469 2.652344 C 162.101562 2.589844 164.226562 2.472656 166.347656 2.421875 C 171.292969 2.296875 176.238281 2.1875 181.1875 2.097656 C 182.488281 2.074219 183.792969 2.183594 185.097656 2.183594 C 187.25 2.183594 189.402344 2.109375 191.550781 2.117188 C 195.101562 2.117188 198.652344 2.117188 202.183594 2.222656 C 208.21875 2.386719 214.253906 2.59375 220.289062 2.835938 C 227.9375 3.144531 235.582031 3.203125 243.230469 3.007812 C 249.386719 2.863281 255.550781 2.832031 261.710938 2.71875 C 266.019531 2.636719 270.335938 2.621094 274.621094 2.363281 C 284.535156 1.773438 294.460938 1.820312 304.378906 1.640625 C 308.691406 1.5625 312.996094 1.324219 317.289062 1.183594 C 323.6875 0.976562 330.078125 0.507812 336.484375 0.550781 C 343.074219 0.59375 349.660156 0.550781 356.230469 0.628906 C 360.324219 0.671875 364.417969 0.828125 368.511719 0.972656 C 369.785156 1.023438 371.046875 1.210938 372.308594 1.355469 C 372.644531 1.417969 372.976562 1.507812 373.300781 1.625 L 373.265625 1.820312 C 373.078125 1.84375 372.890625 1.851562 372.699219 1.84375 C 367.722656 1.203125 362.710938 1.144531 357.707031 1.15625 C 350.695312 1.15625 343.679688 1.214844 336.671875 1.363281 C 331.699219 1.46875 326.726562 1.777344 321.753906 1.988281 C 319.417969 2.085938 317.082031 2.175781 314.75 2.253906 C 310.746094 2.386719 306.742188 2.550781 302.738281 2.632812 C 297.519531 2.730469 292.296875 2.714844 287.078125 2.824219 C 283.101562 2.90625 279.132812 3.132812 275.160156 3.261719 C 271.460938 3.382812 267.757812 3.480469 264.054688 3.554688 C 256.863281 3.707031 249.671875 3.902344 242.480469 3.972656 C 236.441406 4.03125 230.398438 3.972656 224.363281 3.902344 C 221.707031 3.878906 219.019531 3.761719 216.351562 3.664062 C 212.175781 3.503906 208 3.28125 203.800781 3.164062 C 199.128906 3.039062 194.457031 2.964844 189.78125 2.945312 C 184.6875 2.945312 179.589844 2.945312 174.5 3.039062 C 170.738281 3.113281 166.976562 3.34375 163.21875 3.488281 C 154.488281 3.824219 145.753906 4.191406 137.023438 4.046875 C 131.34375 3.949219 125.671875 3.796875 119.996094 3.691406 C 114.957031 3.597656 109.921875 3.582031 104.882812 3.457031 C 101.183594 3.367188 97.484375 3.132812 93.789062 3.007812 C 90.269531 2.894531 86.75 2.84375 83.230469 2.773438 C 76.21875 2.636719 69.207031 2.546875 62.199219 2.363281 C 57.984375 2.257812 53.769531 2.054688 49.558594 1.828125 C 37.183594 1.15625 24.804688 1.070312 12.417969 1.210938 C 9.070312 1.210938 5.734375 1.421875 2.410156 1.839844 C 2.125 1.855469 1.839844 1.855469 1.554688 1.839844 Z M 1.554688 1.839844 " fill-opacity="1" fill-rule="nonzero"/></g><path fill="#0f52ba" d="M 370.152344 255.726562 C 369.773438 255.773438 369.390625 255.847656 369.042969 255.859375 C 367.738281 255.898438 366.429688 255.898438 365.128906 255.949219 C 361.332031 256.085938 357.535156 256.273438 353.761719 256.394531 C 349.726562 256.523438 345.6875 256.601562 341.652344 256.707031 C 336.335938 256.847656 331.03125 256.992188 325.730469 257.132812 C 324.058594 257.171875 322.386719 257.195312 320.722656 257.21875 C 312.46875 257.324219 304.214844 257.464844 295.957031 257.515625 C 291.492188 257.542969 287.03125 257.453125 282.570312 257.339844 C 277.292969 257.203125 272.015625 257 266.738281 256.800781 C 262.3125 256.636719 257.886719 256.5 253.449219 256.253906 C 239.046875 255.457031 224.628906 255.5625 210.210938 255.566406 C 204.925781 255.566406 199.644531 255.554688 194.363281 255.527344 C 192.511719 255.558594 190.664062 255.492188 188.816406 255.328125 C 187.851562 255.28125 186.882812 255.292969 185.917969 255.371094 C 178.964844 255.453125 172.015625 255.519531 165.066406 255.566406 C 156.199219 255.613281 147.335938 255.585938 138.488281 255.652344 C 134.753906 255.679688 131.023438 255.835938 127.292969 255.976562 C 123.078125 256.132812 118.867188 256.359375 114.652344 256.511719 C 109.074219 256.746094 103.496094 257 97.914062 257.171875 C 93.125 257.316406 88.328125 257.4375 83.53125 257.445312 C 75.125 257.46875 66.71875 257.4375 58.3125 257.34375 C 53.210938 257.292969 48.117188 257.074219 43.019531 256.941406 C 40.808594 256.886719 38.589844 256.875 36.375 256.8125 C 30.882812 256.675781 25.390625 256.515625 19.902344 256.335938 C 17.53125 256.261719 15.171875 256.164062 12.804688 256.085938 C 10.441406 256.003906 8.074219 255.941406 5.710938 255.84375 C 5.402344 255.8125 5.101562 255.761719 4.800781 255.6875 L 4.800781 255.464844 C 5.011719 255.394531 5.226562 255.34375 5.445312 255.320312 C 7.445312 255.320312 9.449219 255.285156 11.445312 255.339844 C 18.617188 255.546875 25.765625 255.800781 32.921875 255.964844 C 42.511719 256.1875 52.101562 256.371094 61.691406 256.523438 C 68.308594 256.617188 74.925781 256.644531 81.539062 256.605469 C 86.910156 256.574219 92.285156 256.425781 97.652344 256.261719 C 104.238281 256.0625 110.816406 255.796875 117.394531 255.539062 C 122.488281 255.335938 127.578125 255.007812 132.675781 254.902344 C 141.355469 254.722656 150.035156 254.648438 158.710938 254.574219 C 166.878906 254.5 175.039062 254.488281 183.210938 254.453125 C 184.210938 254.453125 185.21875 254.355469 186.210938 254.453125 C 187.066406 254.515625 187.921875 254.515625 188.78125 254.453125 C 189.894531 254.378906 191.023438 254.453125 192.144531 254.453125 C 203.191406 254.5 214.246094 254.519531 225.292969 254.601562 C 231.207031 254.648438 237.125 254.75 243.046875 254.90625 C 247.472656 255.019531 251.898438 255.257812 256.335938 255.429688 C 260.773438 255.605469 265.128906 255.789062 269.527344 255.953125 C 274.285156 256.121094 279.046875 256.359375 283.8125 256.417969 C 292.949219 256.539062 302.082031 256.625 311.21875 256.605469 C 317.867188 256.605469 324.507812 256.398438 331.160156 256.269531 C 337.410156 256.148438 343.65625 256.011719 349.90625 255.863281 C 353.09375 255.785156 356.273438 255.640625 359.460938 255.535156 C 362.433594 255.433594 365.40625 255.347656 368.375 255.273438 C 368.96875 255.28125 369.558594 255.324219 370.144531 255.398438 Z M 370.152344 255.726562 " fill-opacity="1" fill-rule="nonzero"/><path fill="#0f52ba" d="M 10.605469 249.953125 C 10.453125 249.847656 10.222656 249.765625 10.167969 249.625 C 10.117188 249.355469 10.105469 249.085938 10.132812 248.8125 C 10.167969 242.957031 10.246094 237.105469 10.222656 231.25 C 10.207031 226.027344 10.109375 220.8125 9.984375 215.59375 C 9.871094 210.5625 9.683594 205.53125 9.515625 200.496094 C 9.308594 194.335938 9.308594 188.179688 9.515625 182.023438 C 9.515625 181.605469 9.515625 181.1875 9.515625 180.75 C 10.046875 180.679688 10.210938 181.042969 10.363281 181.34375 C 11.191406 182.960938 12.046875 184.566406 12.800781 186.21875 C 14.441406 189.808594 15.683594 193.550781 16.980469 197.277344 C 20.445312 207.484375 25.347656 216.953125 31.675781 225.679688 C 34.9375 230.203125 38.777344 234.164062 43.199219 237.5625 C 47.621094 240.960938 52.4375 243.652344 57.644531 245.640625 C 63.144531 247.761719 68.769531 249.449219 74.527344 250.703125 C 75.765625 250.976562 77.007812 251.28125 78.304688 251.164062 C 78.78125 251.113281 79.152344 251.289062 79.417969 251.691406 C 78.96875 252.410156 78.207031 252.339844 77.550781 252.347656 C 74.976562 252.371094 72.398438 252.304688 69.820312 252.300781 C 60.136719 252.300781 50.453125 252.300781 40.773438 252.257812 C 37.167969 252.234375 33.558594 252.0625 29.953125 251.878906 C 24.289062 251.578125 18.625 251.207031 12.964844 250.867188 C 12.332031 250.828125 11.691406 250.847656 11.066406 250.78125 C 10.445312 250.710938 10.4375 250.609375 10.585938 249.925781 C 15.65625 249.925781 20.71875 250.144531 25.773438 250.472656 C 29.980469 250.746094 34.191406 251.074219 38.402344 251.117188 C 48.933594 251.230469 59.46875 251.195312 70 251.214844 C 70.285156 251.214844 70.566406 251.214844 70.878906 251.214844 C 70.835938 251.089844 70.832031 251.046875 70.816406 251.039062 C 70.617188 250.96875 70.417969 250.902344 70.214844 250.84375 C 65.65625 249.542969 61.121094 248.242188 56.726562 246.460938 C 51.359375 244.324219 46.414062 241.464844 41.882812 237.882812 C 37.351562 234.296875 33.433594 230.140625 30.121094 225.410156 C 25.601562 218.988281 21.828125 212.152344 18.800781 204.90625 C 17.078125 200.820312 15.8125 196.582031 14.390625 192.378906 C 13.328125 189.144531 12.019531 186.015625 10.46875 182.988281 C 10.351562 182.777344 10.203125 182.578125 9.992188 182.257812 C 9.964844 182.410156 9.941406 182.558594 9.933594 182.710938 C 9.933594 187.441406 9.84375 192.179688 9.933594 196.910156 C 10.0625 203.496094 10.335938 210.074219 10.511719 216.65625 C 10.632812 221.210938 10.671875 225.765625 10.796875 230.324219 C 10.964844 236.511719 10.933594 242.699219 10.757812 248.890625 C 10.726562 249.246094 10.675781 249.601562 10.605469 249.953125 Z M 10.605469 249.953125 " fill-opacity="1" fill-rule="nonzero"/><path fill="#0f52ba" d="M 10.265625 12.546875 L 10.613281 11.734375 C 11.136719 11.683594 11.703125 11.605469 12.265625 11.574219 C 17.238281 11.304688 22.210938 11.125 27.171875 10.757812 C 35.171875 10.164062 43.179688 10.101562 51.191406 10.113281 C 59.542969 10.113281 67.898438 10.121094 76.25 10.140625 C 76.945312 10.140625 77.644531 10.117188 78.339844 10.140625 C 78.8125 10.140625 79.183594 10.335938 79.449219 10.722656 C 79.332031 10.921875 79.167969 11.070312 78.964844 11.175781 C 78.757812 11.28125 78.542969 11.320312 78.3125 11.300781 C 77.011719 11.140625 75.769531 11.433594 74.539062 11.726562 C 67.363281 13.433594 60.269531 15.414062 53.570312 18.5625 C 44.144531 23 36.632812 29.648438 30.675781 38.160156 C 24.742188 46.652344 20.117188 55.808594 16.804688 65.625 C 15.496094 69.664062 13.976562 73.625 12.246094 77.503906 C 11.6875 78.710938 11.03125 79.878906 10.394531 81.046875 C 10.199219 81.324219 9.980469 81.574219 9.738281 81.808594 L 9.558594 81.71875 C 9.53125 80.765625 9.488281 79.820312 9.476562 78.863281 C 9.441406 74.707031 9.347656 70.546875 9.402344 66.394531 C 9.460938 62.238281 9.699219 58.144531 9.828125 54.023438 C 9.929688 50.746094 10.015625 47.46875 10.050781 44.191406 C 10.136719 35.839844 10.203125 27.496094 10.246094 19.15625 C 10.246094 17.339844 10.171875 15.515625 10.148438 13.699219 C 10.167969 13.316406 10.203125 12.9375 10.261719 12.558594 C 10.820312 12.558594 10.757812 12.984375 10.765625 13.316406 C 10.8125 14.773438 10.863281 16.230469 10.886719 17.683594 C 11.03125 27.066406 10.757812 36.441406 10.523438 45.8125 C 10.363281 52.246094 10.078125 58.675781 9.953125 65.105469 C 9.863281 69.929688 9.9375 74.757812 9.953125 79.582031 C 9.960938 79.71875 9.976562 79.851562 10 79.984375 C 10.472656 79.417969 10.859375 78.800781 11.160156 78.128906 C 12.867188 74.40625 14.316406 70.585938 15.503906 66.671875 C 18.335938 57.515625 22.339844 48.910156 27.527344 40.851562 C 30.402344 36.40625 33.554688 32.179688 37.359375 28.46875 C 40.457031 25.472656 43.84375 22.84375 47.511719 20.582031 C 51.179688 18.320312 55.050781 16.476562 59.121094 15.054688 C 62.652344 13.785156 66.289062 12.773438 69.878906 11.675781 L 71.078125 11.296875 C 70.773438 11.1875 70.457031 11.144531 70.128906 11.164062 C 60.003906 11.207031 49.867188 11.25 39.714844 11.289062 C 34.882812 11.289062 30.074219 11.667969 25.253906 11.929688 C 21.964844 12.117188 18.664062 12.277344 15.351562 12.414062 C 13.652344 12.507812 11.953125 12.511719 10.265625 12.546875 Z M 10.265625 12.546875 " fill-opacity="1" fill-rule="nonzero"/><path fill="#0f52ba" d="M 364.675781 12.542969 C 364.761719 12.878906 364.816406 13.21875 364.839844 13.5625 C 364.808594 18.664062 364.714844 23.761719 364.726562 28.863281 C 364.726562 34.019531 364.816406 39.175781 364.921875 44.335938 C 365.015625 49.25 365.109375 54.167969 365.324219 59.078125 C 365.546875 64.324219 365.660156 69.570312 365.59375 74.820312 C 365.566406 77.066406 365.496094 79.308594 365.445312 81.554688 C 365.445312 81.601562 365.386719 81.652344 365.335938 81.734375 C 364.917969 81.710938 364.753906 81.355469 364.578125 81.054688 C 363.9375 79.851562 363.273438 78.660156 362.679688 77.425781 C 360.816406 73.441406 359.394531 69.277344 357.96875 65.117188 C 354.507812 54.96875 349.636719 45.546875 343.355469 36.859375 C 336.238281 27.039062 326.917969 20.207031 315.554688 16.121094 C 310.757812 14.386719 305.871094 12.953125 300.898438 11.8125 C 299.835938 11.574219 298.753906 11.433594 297.675781 11.253906 C 297.402344 11.238281 297.132812 11.257812 296.867188 11.304688 C 296.605469 11.339844 296.351562 11.304688 296.109375 11.199219 C 295.867188 11.09375 295.667969 10.933594 295.515625 10.71875 C 296.019531 10.050781 296.753906 10.078125 297.4375 10.078125 C 308.789062 10.078125 320.140625 10.078125 331.492188 10.140625 C 335.558594 10.164062 339.625 10.308594 343.6875 10.492188 C 347.445312 10.664062 351.195312 10.980469 354.949219 11.199219 C 357.492188 11.351562 360.042969 11.441406 362.589844 11.578125 C 363.1875 11.609375 363.785156 11.679688 364.34375 11.730469 L 364.65625 12.554688 C 364.449219 12.519531 364.238281 12.5 364.023438 12.492188 C 358.222656 12.527344 352.445312 12.148438 346.65625 11.785156 C 341.453125 11.457031 336.230469 11.285156 331.015625 11.234375 C 322.210938 11.140625 313.410156 11.199219 304.609375 11.195312 C 304.390625 11.195312 304.179688 11.195312 303.960938 11.195312 C 304.949219 11.621094 305.960938 11.972656 307 12.242188 C 311.457031 13.53125 315.878906 14.902344 320.136719 16.800781 C 324.960938 18.90625 329.425781 21.613281 333.523438 24.917969 C 337.617188 28.226562 341.207031 32.015625 344.285156 36.289062 C 349.273438 43.136719 353.332031 50.5 356.457031 58.378906 C 358.011719 62.289062 359.25 66.320312 360.632812 70.300781 C 361.6875 73.429688 362.964844 76.46875 364.464844 79.414062 C 364.589844 79.625 364.722656 79.832031 364.871094 80.03125 C 364.984375 79.722656 365.035156 79.402344 365.019531 79.070312 C 365.097656 71.726562 365.019531 64.382812 364.742188 57.050781 C 364.503906 50.972656 364.386719 44.917969 364.289062 38.851562 C 364.175781 31.78125 364.136719 24.710938 364.082031 17.640625 C 364.082031 16.21875 364.128906 14.789062 364.175781 13.367188 C 364.21875 13.027344 364.125 12.589844 364.675781 12.542969 Z M 364.675781 12.542969 " fill-opacity="1" fill-rule="nonzero"/><path fill="#0f52ba" d="M 364.304688 250.714844 C 363.957031 250.75 363.507812 250.8125 363.058594 250.839844 C 357.972656 251.121094 352.878906 251.355469 347.796875 251.691406 C 341.679688 252.089844 335.558594 252.304688 329.425781 252.292969 C 319.351562 252.273438 309.273438 252.265625 299.199219 252.273438 C 298.324219 252.273438 297.445312 252.273438 296.574219 252.273438 C 296.128906 252.257812 295.78125 252.070312 295.53125 251.707031 C 295.785156 251.320312 296.144531 251.140625 296.609375 251.167969 C 298.507812 251.273438 300.289062 250.789062 302.074219 250.351562 C 307.554688 248.976562 312.96875 247.421875 318.183594 245.292969 C 329.015625 240.902344 337.65625 233.824219 344.328125 224.253906 C 350.238281 215.765625 354.851562 206.617188 358.164062 196.820312 C 359.472656 192.78125 360.992188 188.820312 362.722656 184.945312 C 363.285156 183.738281 363.941406 182.570312 364.570312 181.398438 C 364.734375 181.09375 364.894531 180.746094 365.398438 180.703125 C 365.4375 181.839844 365.5 182.90625 365.511719 183.984375 C 365.546875 187.925781 365.625 191.867188 365.574219 195.8125 C 365.527344 199.453125 365.324219 203.089844 365.191406 206.726562 C 365.132812 208.484375 365.078125 210.242188 365.050781 212.003906 C 364.929688 218.308594 364.785156 224.621094 364.726562 230.929688 C 364.675781 236.328125 364.726562 241.730469 364.75 247.132812 C 364.75 247.28125 364.75 247.433594 364.75 247.585938 C 364.886719 248.632812 364.992188 249.671875 364.304688 250.714844 Z M 304.085938 251.042969 L 304.109375 251.214844 L 305.058594 251.214844 C 314.109375 251.214844 323.152344 251.265625 332.195312 251.167969 C 337.414062 251.109375 342.628906 250.886719 347.835938 250.578125 C 352.320312 250.3125 356.792969 250 361.285156 249.949219 C 362.285156 249.949219 363.28125 249.949219 364.257812 249.949219 C 364.230469 249.359375 364.183594 248.875 364.179688 248.390625 C 364.148438 244.171875 364.058594 239.957031 364.113281 235.738281 C 364.222656 227.546875 364.382812 219.355469 364.589844 211.167969 C 364.691406 206.679688 364.949219 202.191406 365.023438 197.703125 C 365.097656 192.769531 365.046875 187.871094 365.023438 182.957031 C 365.011719 182.773438 364.988281 182.59375 364.949219 182.414062 C 364.484375 183.035156 364.089844 183.695312 363.765625 184.402344 C 361.996094 188.296875 360.488281 192.289062 359.238281 196.382812 C 356.089844 206.304688 351.578125 215.566406 345.707031 224.164062 C 339.09375 233.871094 330.519531 241.164062 319.71875 245.832031 C 315.683594 247.511719 311.558594 248.9375 307.347656 250.109375 C 306.273438 250.421875 305.179688 250.730469 304.085938 251.042969 Z M 304.085938 251.042969 " fill-opacity="1" fill-rule="nonzero"/><path fill="#0f52ba" d="M 82.667969 11.332031 C 82.90625 11.257812 83.152344 11.210938 83.398438 11.1875 C 85.707031 11.210938 88.015625 11.246094 90.316406 11.292969 C 92.015625 11.324219 93.714844 11.351562 95.414062 11.417969 C 110.402344 11.992188 125.40625 11.558594 140.394531 11.722656 C 145.519531 11.777344 150.644531 12.007812 155.765625 12.210938 C 160.324219 12.386719 164.855469 12.679688 169.402344 12.847656 C 175.527344 13.066406 181.652344 13.292969 187.78125 13.359375 C 191.632812 13.402344 195.484375 13.15625 199.339844 13.039062 C 202.039062 12.957031 204.738281 12.898438 207.4375 12.785156 C 210.832031 12.640625 214.222656 12.433594 217.617188 12.277344 C 220.890625 12.125 224.160156 11.921875 227.4375 11.898438 C 234.964844 11.796875 242.488281 11.769531 250.015625 11.730469 C 257.632812 11.695312 265.253906 11.730469 272.871094 11.652344 C 276.695312 11.617188 280.515625 11.4375 284.335938 11.339844 C 286.671875 11.273438 289.007812 11.238281 291.347656 11.199219 C 291.902344 11.199219 291.902344 11.199219 292.402344 11.625 C 292.121094 11.679688 291.839844 11.722656 291.558594 11.75 C 288.589844 11.824219 285.617188 11.882812 282.644531 11.96875 C 278.339844 12.089844 274.027344 12.261719 269.734375 12.347656 C 266.882812 12.417969 264.039062 12.40625 261.175781 12.410156 C 252.007812 12.410156 242.839844 12.410156 233.671875 12.410156 C 231.488281 12.410156 229.300781 12.410156 227.121094 12.503906 C 222.90625 12.691406 218.699219 12.949219 214.488281 13.15625 C 211.277344 13.3125 208.0625 13.453125 204.847656 13.574219 C 199.96875 13.765625 195.085938 14.011719 190.203125 14.085938 C 186.324219 14.140625 182.4375 13.984375 178.558594 13.902344 C 176.613281 13.863281 174.675781 13.792969 172.734375 13.707031 C 169.128906 13.558594 165.523438 13.394531 161.917969 13.222656 C 157.613281 13.019531 153.308594 12.773438 149.007812 12.609375 C 145.886719 12.488281 142.761719 12.425781 139.632812 12.414062 C 130.347656 12.386719 121.054688 12.449219 111.769531 12.390625 C 105.855469 12.351562 99.933594 12.179688 94.019531 12.046875 C 90.53125 11.964844 87.042969 11.84375 83.558594 11.742188 C 83.273438 11.742188 82.992188 11.695312 82.707031 11.667969 Z M 82.667969 11.332031 " fill-opacity="1" fill-rule="nonzero"/><path fill="#0f52ba" d="M 292.285156 251.117188 C 292.003906 251.171875 291.722656 251.207031 291.441406 251.21875 C 288.5 251.191406 285.550781 251.167969 282.609375 251.101562 C 279.210938 251.027344 275.816406 250.835938 272.417969 250.816406 C 259.890625 250.75 247.359375 250.769531 234.8125 250.671875 C 229.625 250.636719 224.4375 250.4375 219.246094 250.242188 C 214.050781 250.042969 208.761719 249.734375 203.519531 249.527344 C 198.515625 249.328125 193.511719 249.148438 188.507812 249.054688 C 185.351562 249.003906 182.195312 249.152344 179.039062 249.242188 C 175.277344 249.347656 171.519531 249.453125 167.761719 249.621094 C 163.789062 249.796875 159.824219 250.074219 155.855469 250.242188 C 151.296875 250.429688 146.742188 250.652344 142.207031 250.671875 C 130.886719 250.738281 119.5625 250.671875 108.242188 250.710938 C 103.78125 250.710938 99.324219 250.921875 94.863281 251.019531 C 91.160156 251.101562 87.460938 251.171875 83.757812 251.222656 C 83.378906 251.222656 82.972656 251.351562 82.652344 250.980469 C 82.855469 250.546875 83.234375 250.6875 83.53125 250.679688 C 85.113281 250.648438 86.6875 250.660156 88.265625 250.609375 C 92.269531 250.480469 96.269531 250.296875 100.273438 250.1875 C 103.125 250.109375 105.96875 250.085938 108.835938 250.078125 C 117.910156 250.078125 126.984375 250.078125 136.0625 250.078125 C 142.226562 250.09375 148.382812 249.933594 154.53125 249.601562 C 158.621094 249.382812 162.710938 249.164062 166.804688 248.992188 C 171.773438 248.777344 176.746094 248.597656 181.722656 248.453125 C 184.871094 248.363281 188.03125 248.296875 191.183594 248.351562 C 194.886719 248.414062 198.582031 248.625 202.28125 248.761719 C 203.527344 248.808594 204.773438 248.796875 206.011719 248.855469 C 209.050781 249 212.078125 249.164062 215.097656 249.335938 C 223.523438 249.808594 231.949219 250.121094 240.390625 250.097656 C 250.742188 250.054688 261.09375 250.070312 271.441406 250.140625 C 275.296875 250.164062 279.148438 250.375 282.996094 250.484375 C 285.757812 250.5625 288.519531 250.613281 291.28125 250.683594 C 291.617188 250.683594 291.953125 250.757812 292.292969 250.796875 Z M 292.285156 251.117188 " fill-opacity="1" fill-rule="nonzero"/><g clip-path="url(#21e427c322)"><path fill="#0f52ba" d="M 374.058594 260.515625 C 373.855469 260.46875 373.699219 260.359375 373.589844 260.1875 C 373.476562 260.011719 373.441406 259.824219 373.480469 259.621094 C 373.507812 258.484375 373.535156 257.378906 373.570312 256.257812 L 374.132812 236.695312 C 374.175781 235.269531 374.207031 233.84375 374.207031 232.414062 C 374.207031 225.648438 374.207031 218.878906 374.152344 212.113281 C 374.054688 202.433594 373.917969 192.75 373.742188 183.070312 C 373.5 169.085938 373.179688 155.097656 372.984375 141.105469 C 372.816406 130.0625 372.960938 119.011719 373.214844 107.96875 C 373.332031 102.839844 373.386719 97.714844 373.46875 92.582031 C 373.636719 82.6875 373.804688 72.796875 373.96875 62.90625 C 374.160156 50.953125 374.371094 38.988281 374.171875 27.035156 C 374.097656 22.214844 373.863281 17.390625 373.722656 12.570312 C 373.652344 10.324219 373.628906 8.078125 373.582031 5.835938 C 373.558594 4.800781 373.523438 3.773438 373.492188 2.738281 C 373.492188 2.390625 373.519531 2.070312 374.066406 1.941406 C 374.128906 2.289062 374.167969 2.640625 374.191406 2.996094 C 374.191406 5.570312 374.191406 8.152344 374.234375 10.730469 C 374.332031 15.585938 374.550781 20.4375 374.578125 25.292969 C 374.625 33.546875 374.609375 41.800781 374.53125 50.054688 C 374.460938 58.066406 374.324219 66.078125 374.1875 74.089844 C 374.101562 79.023438 373.957031 83.960938 373.851562 88.921875 C 373.773438 92.742188 373.722656 96.566406 373.652344 100.390625 C 373.539062 106.667969 373.375 112.949219 373.316406 119.234375 C 373.253906 126 373.246094 132.765625 373.292969 139.535156 C 373.335938 145.757812 373.46875 151.976562 373.582031 158.195312 C 373.6875 164.203125 373.828125 170.207031 373.921875 176.214844 C 374.042969 184.011719 374.121094 191.8125 374.242188 199.609375 C 374.320312 204.585938 374.488281 209.5625 374.539062 214.535156 C 374.605469 220.726562 374.648438 226.921875 374.601562 233.109375 C 374.558594 238.628906 374.367188 244.152344 374.269531 249.675781 C 374.214844 252.921875 374.222656 256.167969 374.191406 259.414062 C 374.171875 259.757812 374.105469 260.105469 374.058594 260.515625 Z M 374.058594 260.515625 " fill-opacity="1" fill-rule="nonzero"/></g><g clip-path="url(#d3c87a6ab9)"><path fill="#0f52ba" d="M 0.9375 1.949219 C 1.492188 2.074219 1.492188 2.417969 1.484375 2.757812 C 1.457031 3.96875 1.4375 5.183594 1.40625 6.398438 C 1.242188 12.402344 0.992188 18.410156 0.921875 24.414062 C 0.824219 33.214844 0.789062 42.015625 0.820312 50.820312 C 0.855469 59.042969 1.007812 67.265625 1.148438 75.496094 C 1.269531 82.445312 1.445312 89.394531 1.582031 96.34375 C 1.6875 101.984375 1.8125 107.628906 1.851562 113.277344 C 1.929688 123.347656 2.027344 133.425781 1.957031 143.5 C 1.882812 153.816406 1.609375 164.136719 1.4375 174.453125 C 1.265625 184.832031 1.101562 195.207031 0.957031 205.585938 C 0.855469 213.410156 0.773438 221.238281 0.773438 229.070312 C 0.773438 234.316406 0.976562 239.5625 1.101562 244.816406 C 1.195312 248.757812 1.308594 252.699219 1.414062 256.640625 L 1.480469 259.640625 C 1.480469 259.976562 1.515625 260.324219 1.058594 260.457031 C 0.679688 260.222656 0.773438 259.832031 0.773438 259.488281 C 0.773438 256.789062 0.773438 254.085938 0.738281 251.386719 C 0.652344 246.625 0.457031 241.859375 0.433594 237.101562 C 0.390625 228.964844 0.402344 220.832031 0.464844 212.699219 C 0.53125 204.445312 0.640625 196.191406 0.796875 187.9375 C 0.921875 180.960938 1.121094 173.980469 1.273438 167.007812 C 1.308594 165.488281 1.296875 163.96875 1.324219 162.453125 C 1.429688 156.171875 1.582031 149.890625 1.648438 143.609375 C 1.714844 137.144531 1.730469 130.683594 1.703125 124.21875 C 1.679688 118.785156 1.574219 113.351562 1.484375 107.921875 C 1.386719 102.402344 1.261719 96.878906 1.148438 91.355469 C 1.050781 86.59375 0.941406 81.832031 0.875 77.070312 C 0.773438 70.878906 0.832031 64.6875 0.660156 58.5 C 0.351562 47.300781 0.367188 36.097656 0.4375 24.910156 C 0.46875 19.082031 0.671875 13.257812 0.78125 7.445312 C 0.8125 5.925781 0.78125 4.40625 0.78125 2.886719 C 0.808594 2.570312 0.863281 2.257812 0.9375 1.949219 Z M 0.9375 1.949219 " fill-opacity="1" fill-rule="nonzero"/></g><path fill="#0f52ba" d="M 370.152344 130.757812 C 370.128906 130.460938 370.085938 130.167969 370.078125 129.871094 C 370.058594 128.296875 370.03125 126.714844 370.03125 125.140625 C 370.03125 104.167969 370.050781 83.203125 370.085938 62.238281 C 370.085938 56.414062 370.214844 50.585938 370.394531 44.773438 C 370.773438 32.941406 370.746094 21.113281 370.742188 9.277344 L 370.742188 7.730469 C 370.742188 7.4375 370.824219 7.191406 371.300781 7.175781 C 371.324219 7.675781 371.371094 8.175781 371.371094 8.691406 C 371.34375 13.847656 371.300781 19.007812 371.277344 24.164062 C 371.277344 26.988281 371.3125 29.8125 371.253906 32.632812 C 371.125 38.578125 370.90625 44.519531 370.792969 50.476562 C 370.667969 57.03125 370.570312 63.582031 370.539062 70.136719 C 370.488281 80.632812 370.511719 91.132812 370.496094 101.648438 C 370.496094 110.996094 370.484375 120.339844 370.460938 129.683594 C 370.460938 130.066406 370.425781 130.445312 370.40625 130.824219 Z M 370.152344 130.757812 " fill-opacity="1" fill-rule="nonzero"/><path fill="#0f52ba" d="M 371.3125 255.335938 C 370.699219 255.164062 370.742188 254.808594 370.742188 254.472656 L 370.742188 250.46875 C 370.714844 243.277344 370.742188 236.082031 370.640625 228.890625 C 370.554688 222.246094 370.292969 215.601562 370.199219 208.960938 C 370.097656 201.890625 370.082031 194.824219 370.070312 187.753906 C 370.046875 171.148438 370.03125 154.546875 370.03125 137.949219 C 370.03125 136.128906 370.066406 134.308594 370.085938 132.488281 C 370.085938 132.207031 370.140625 131.929688 370.171875 131.648438 L 370.398438 131.648438 C 370.421875 131.960938 370.460938 132.273438 370.460938 132.585938 C 370.460938 136.683594 370.460938 140.78125 370.460938 144.875 C 370.492188 163.269531 370.492188 181.660156 370.589844 200.046875 C 370.617188 206.570312 370.882812 213.09375 371.035156 219.613281 C 371.121094 223.101562 371.230469 226.589844 371.257812 230.078125 C 371.320312 237.96875 371.339844 245.859375 371.371094 253.75 C 371.375 254.257812 371.339844 254.761719 371.3125 255.335938 Z M 371.3125 255.335938 " fill-opacity="1" fill-rule="nonzero"/><path fill="#0f52ba" d="M 4.832031 131.691406 C 4.855469 131.976562 4.894531 132.257812 4.898438 132.542969 C 4.917969 134.0625 4.9375 135.582031 4.933594 137.101562 C 4.933594 158.132812 4.921875 179.167969 4.894531 200.203125 C 4.894531 205.054688 4.722656 209.910156 4.636719 214.765625 C 4.523438 220.773438 4.382812 226.78125 4.320312 232.789062 C 4.25 239.625 4.253906 246.460938 4.222656 253.292969 C 4.222656 253.777344 4.222656 254.261719 4.222656 254.746094 C 4.222656 255.054688 4.128906 255.285156 3.671875 255.265625 C 3.671875 254.792969 3.621094 254.320312 3.621094 253.839844 C 3.640625 248.679688 3.664062 243.523438 3.691406 238.359375 C 3.691406 235.507812 3.652344 232.664062 3.710938 229.800781 C 3.84375 223.949219 4.058594 218.09375 4.179688 212.238281 C 4.300781 206.445312 4.386719 200.648438 4.410156 194.847656 C 4.464844 183.253906 4.460938 171.664062 4.480469 160.066406 L 4.523438 132.839844 L 4.523438 131.703125 Z M 4.832031 131.691406 " fill-opacity="1" fill-rule="nonzero"/><path fill="#0f52ba" d="M 3.613281 7.15625 C 4.132812 7.1875 4.210938 7.398438 4.214844 7.660156 L 4.214844 9.117188 C 4.214844 15.191406 4.214844 21.269531 4.253906 27.324219 C 4.292969 32.574219 4.355469 37.820312 4.515625 43.070312 C 5.21875 66.003906 4.792969 88.96875 4.949219 111.90625 C 4.988281 117.855469 4.949219 123.800781 4.921875 129.75 C 4.902344 130.085938 4.871094 130.417969 4.820312 130.753906 L 4.574219 130.753906 C 4.574219 130.410156 4.535156 130.074219 4.535156 129.730469 C 4.535156 122.175781 4.535156 114.617188 4.535156 107.058594 C 4.507812 92.070312 4.503906 77.066406 4.398438 62.089844 C 4.355469 55.476562 4.0625 48.867188 3.945312 42.253906 C 3.820312 35.417969 3.757812 28.542969 3.695312 21.6875 C 3.652344 17.375 3.65625 13.066406 3.640625 8.757812 Z M 3.613281 7.15625 " fill-opacity="1" fill-rule="nonzero"/><path fill="#0f52ba" d="M 9.546875 86.632812 C 9.789062 86.832031 9.949219 86.898438 9.980469 87.011719 C 10.03125 87.21875 10.050781 87.429688 10.042969 87.644531 C 10.152344 98.992188 10.300781 110.339844 10.359375 121.6875 C 10.410156 130.125 10.382812 138.5625 10.332031 147 C 10.269531 156.253906 10.144531 165.507812 10.039062 174.765625 C 10.039062 175.082031 10.160156 175.496094 9.550781 175.726562 C 9.390625 165.761719 9.632812 155.894531 9.671875 146.03125 C 9.707031 136.167969 9.707031 126.289062 9.671875 116.441406 C 9.632812 106.597656 9.386719 96.679688 9.546875 86.632812 Z M 9.546875 86.632812 " fill-opacity="1" fill-rule="nonzero"/><path fill="#0f52ba" d="M 365.445312 175.683594 C 365.273438 175.671875 365.136719 175.601562 365.03125 175.464844 C 364.925781 175.332031 364.890625 175.179688 364.921875 175.011719 C 364.921875 174.433594 364.921875 173.871094 364.921875 173.28125 C 364.816406 161.328125 364.667969 149.359375 364.621094 137.417969 C 364.585938 128.863281 364.667969 120.308594 364.722656 111.753906 C 364.777344 103.800781 364.84375 95.851562 364.929688 87.90625 C 364.929688 87.527344 364.777344 87.054688 365.269531 86.738281 C 365.566406 86.992188 365.449219 87.3125 365.453125 87.582031 C 365.453125 91.253906 365.480469 94.925781 365.453125 98.59375 C 365.402344 107.085938 365.308594 115.585938 365.28125 124.078125 C 365.253906 132.484375 365.265625 140.886719 365.308594 149.292969 C 365.332031 157.699219 365.398438 166.101562 365.445312 174.507812 Z M 365.445312 175.683594 " fill-opacity="1" fill-rule="nonzero"/><path fill="#0f52ba" d="M 24.824219 235.566406 C 25.070312 234.542969 25.148438 233.511719 24.605469 232.507812 C 24.160156 231.679688 23.644531 231.402344 22.742188 231.65625 C 22.074219 231.839844 21.433594 232.125 20.777344 232.359375 C 20.214844 232.582031 19.640625 232.777344 19.058594 232.941406 C 18.058594 233.175781 17.484375 232.765625 17.304688 231.753906 C 17.128906 230.738281 17.257812 229.757812 17.683594 228.820312 C 18.285156 227.464844 18.960938 226.160156 19.605469 224.800781 L 19.90625 224.183594 C 19.378906 224.429688 19 224.636719 18.589844 224.800781 C 16.242188 225.761719 14.695312 224.761719 14.578125 222.238281 C 14.519531 220.933594 14.957031 219.734375 15.269531 218.507812 C 15.8125 216.488281 16.410156 214.480469 16.863281 212.433594 C 17.320312 210.449219 17.175781 208.511719 16.4375 206.621094 C 16.074219 205.722656 15.507812 204.984375 14.734375 204.398438 C 14.566406 204.871094 14.355469 205.320312 14.105469 205.753906 C 13.796875 206.207031 13.417969 206.585938 12.964844 206.894531 C 12.390625 207.253906 11.828125 206.972656 11.59375 206.34375 C 11.542969 206.175781 11.511719 206.007812 11.496094 205.835938 C 11.484375 205.664062 11.492188 205.492188 11.519531 205.320312 C 11.546875 205.148438 11.59375 204.984375 11.660156 204.824219 C 11.726562 204.664062 11.8125 204.511719 11.914062 204.371094 C 12.015625 204.230469 12.128906 204.105469 12.261719 203.992188 C 12.394531 203.878906 12.535156 203.78125 12.6875 203.699219 C 12.84375 203.621094 13.003906 203.558594 13.171875 203.515625 C 13.339844 203.472656 13.511719 203.453125 13.683594 203.449219 C 13.945312 203.449219 14.203125 203.488281 14.597656 203.519531 C 14.679688 203.671875 14.789062 203.804688 14.921875 203.921875 C 16.863281 205.351562 17.410156 207.417969 17.535156 209.667969 C 17.582031 211.347656 17.363281 212.996094 16.878906 214.605469 C 16.363281 216.53125 15.742188 218.441406 15.28125 220.386719 C 15.109375 221.1875 15.070312 221.996094 15.164062 222.8125 C 15.296875 224.207031 16.222656 224.828125 17.59375 224.546875 C 18.878906 224.300781 19.902344 223.648438 20.660156 222.582031 C 20.769531 222.4375 20.875 222.292969 20.984375 222.152344 C 20.984375 222.152344 21.042969 222.128906 21.1875 222.078125 C 21.214844 222.273438 21.3125 222.460938 21.257812 222.617188 C 21.105469 223.003906 20.929688 223.386719 20.730469 223.753906 C 20.09375 225.03125 19.402344 226.28125 18.832031 227.578125 C 18.480469 228.414062 18.195312 229.273438 17.976562 230.15625 C 17.886719 230.542969 17.867188 230.933594 17.917969 231.328125 C 17.992188 232.125 18.296875 232.347656 19.074219 232.089844 C 19.851562 231.832031 20.714844 231.460938 21.535156 231.152344 C 21.921875 231.003906 22.320312 230.882812 22.722656 230.785156 C 22.96875 230.722656 23.214844 230.703125 23.46875 230.722656 C 23.71875 230.746094 23.960938 230.804688 24.191406 230.90625 C 24.421875 231.007812 24.632812 231.140625 24.816406 231.3125 C 25.003906 231.480469 25.15625 231.675781 25.277344 231.898438 C 25.726562 232.578125 25.929688 233.328125 25.886719 234.140625 C 25.84375 234.523438 25.886719 234.925781 25.886719 235.4375 C 27.296875 235.4375 28.695312 235.707031 29.839844 236.746094 C 30.980469 237.789062 31.492188 239.105469 31.8125 240.542969 C 32.152344 242.0625 31.773438 243.417969 30.707031 244.820312 C 31.140625 244.816406 31.574219 244.789062 32.007812 244.738281 C 32.992188 244.5 33.898438 244.082031 34.71875 243.488281 C 35.121094 243.21875 35.523438 242.945312 35.925781 242.675781 C 36.089844 242.53125 36.28125 242.449219 36.5 242.433594 C 36.722656 242.414062 36.921875 242.464844 37.109375 242.582031 C 37.511719 242.839844 37.523438 243.214844 37.488281 243.625 C 37.4375 243.988281 37.402344 244.347656 37.386719 244.710938 C 37.386719 245.417969 37.488281 245.625 38.144531 245.710938 C 38.894531 245.828125 39.644531 245.855469 40.398438 245.792969 C 41.875 245.621094 43.328125 245.300781 44.800781 245.101562 C 46.09375 244.910156 47.359375 245.015625 48.597656 245.417969 C 49.792969 245.816406 50.78125 246.484375 51.203125 247.757812 C 51.484375 248.601562 51.332031 249.054688 50.59375 249.546875 C 50.066406 249.945312 49.46875 250.132812 48.804688 250.105469 C 48.582031 250.101562 48.367188 250.050781 48.164062 249.957031 C 47.960938 249.867188 47.785156 249.734375 47.636719 249.570312 C 47.488281 249.40625 47.378906 249.214844 47.308594 249.003906 C 47.238281 248.792969 47.210938 248.574219 47.230469 248.355469 C 47.230469 248.097656 47.324219 247.71875 47.492188 247.636719 C 47.664062 247.550781 48.015625 247.691406 48.359375 247.75 C 48.277344 248.027344 48.15625 248.214844 48.195312 248.351562 C 48.25 248.609375 48.378906 248.824219 48.574219 249 C 48.957031 249.234375 49.90625 249 50.171875 248.640625 C 50.277344 248.460938 50.300781 248.273438 50.234375 248.074219 C 50.082031 247.652344 49.835938 247.292969 49.496094 246.996094 C 49.160156 246.699219 48.773438 246.5 48.335938 246.398438 C 46.925781 246.015625 45.5 245.949219 44.058594 246.199219 C 42.917969 246.367188 41.78125 246.640625 40.640625 246.738281 C 39.765625 246.8125 38.890625 246.777344 38.023438 246.628906 C 36.824219 246.421875 36.363281 245.660156 36.503906 244.441406 L 36.636719 243.441406 C 36.230469 243.320312 36.039062 243.609375 35.796875 243.746094 C 34.902344 244.257812 34.03125 244.808594 33.136719 245.261719 C 32.476562 245.617188 31.769531 245.761719 31.023438 245.695312 C 30.132812 245.617188 29.789062 245.089844 30.09375 244.253906 C 30.1875 244.027344 30.304688 243.820312 30.449219 243.621094 C 31.039062 242.777344 31.222656 241.851562 31.003906 240.847656 C 30.835938 239.847656 30.472656 238.925781 29.910156 238.078125 C 28.871094 236.605469 27.40625 236.179688 25.636719 236.351562 L 25.359375 237.242188 C 24.363281 240.542969 22.476562 243.164062 19.453125 244.894531 C 18.953125 245.1875 18.421875 245.402344 17.859375 245.542969 C 16.941406 245.773438 16.417969 245.367188 16.480469 244.40625 C 16.511719 243.644531 16.679688 242.914062 16.988281 242.214844 C 18.59375 238.910156 21.171875 236.707031 24.824219 235.566406 Z M 17.324219 244.769531 C 20.242188 244.480469 23.992188 240.234375 24.539062 236.589844 C 24.210938 236.664062 23.890625 236.753906 23.574219 236.859375 C 22.257812 237.40625 21.085938 238.179688 20.0625 239.171875 C 19.039062 240.167969 18.234375 241.316406 17.652344 242.617188 C 17.269531 243.292969 17.160156 244.011719 17.324219 244.769531 Z M 14.285156 204.175781 C 12.902344 203.699219 11.902344 204.445312 12.007812 205.808594 C 12.019531 206.078125 12.132812 206.300781 12.34375 206.476562 C 12.613281 206.523438 12.851562 206.460938 13.058594 206.285156 C 13.703125 205.71875 14.109375 205.015625 14.273438 204.175781 Z M 14.285156 204.175781 " fill-opacity="1" fill-rule="nonzero"/><path fill="#0f52ba" d="M 30.695312 17.628906 C 32.449219 19.808594 32.097656 21.925781 31.109375 23.992188 C 30.078125 26.152344 28.21875 27.074219 25.882812 26.980469 C 25.882812 27.519531 25.851562 27.96875 25.882812 28.414062 C 25.90625 29.230469 25.679688 29.96875 25.207031 30.636719 C 25.078125 30.855469 24.921875 31.046875 24.726562 31.210938 C 24.535156 31.375 24.320312 31.5 24.082031 31.589844 C 23.847656 31.679688 23.601562 31.726562 23.347656 31.734375 C 23.097656 31.738281 22.847656 31.703125 22.609375 31.621094 C 21.804688 31.367188 21.035156 31 20.238281 30.703125 C 19.761719 30.507812 19.273438 30.359375 18.765625 30.253906 C 18.230469 30.160156 18.007812 30.3125 17.941406 30.847656 C 17.847656 31.328125 17.859375 31.804688 17.972656 32.28125 C 18.316406 33.445312 18.730469 34.585938 19.214844 35.699219 C 19.785156 36.972656 20.488281 38.183594 21.113281 39.4375 C 21.234375 39.683594 21.558594 40.007812 21.066406 40.34375 C 20.933594 40.179688 20.804688 40.03125 20.6875 39.871094 C 19.941406 38.804688 18.929688 38.144531 17.652344 37.894531 C 16.203125 37.609375 15.308594 38.214844 15.179688 39.667969 C 15.101562 40.484375 15.152344 41.296875 15.335938 42.097656 C 15.867188 44.273438 16.535156 46.417969 17.097656 48.589844 C 17.632812 50.488281 17.730469 52.414062 17.390625 54.355469 C 17.078125 55.988281 16.414062 57.394531 15.050781 58.433594 C 14.871094 58.597656 14.710938 58.78125 14.574219 58.984375 C 14.324219 58.96875 14.070312 58.96875 13.816406 58.984375 C 13.460938 59.050781 13.121094 59.011719 12.792969 58.863281 C 12.460938 58.714844 12.207031 58.484375 12.019531 58.175781 C 11.574219 57.492188 11.328125 56.742188 11.703125 55.941406 C 11.960938 55.382812 12.480469 55.253906 13.082031 55.5625 C 13.660156 55.886719 14.070312 56.359375 14.3125 56.976562 C 14.460938 57.300781 14.578125 57.628906 14.738281 58.019531 C 15.53125 57.445312 16.109375 56.703125 16.464844 55.789062 C 17.214844 53.894531 17.355469 51.957031 16.882812 49.976562 C 16.351562 47.675781 15.6875 45.417969 15.058594 43.140625 C 14.707031 42.09375 14.566406 41.019531 14.628906 39.917969 C 14.65625 39.617188 14.710938 39.316406 14.792969 39.027344 C 15.171875 37.75 16.109375 37.097656 17.40625 37.335938 C 18.25 37.546875 19.070312 37.8125 19.878906 38.125 C 19.664062 37.707031 19.425781 37.300781 19.238281 36.875 C 18.640625 35.554688 18.027344 34.21875 17.488281 32.890625 C 17.207031 32.125 17.160156 31.347656 17.355469 30.558594 C 17.535156 29.703125 18.085938 29.308594 18.945312 29.484375 C 19.503906 29.617188 20.054688 29.789062 20.589844 29.996094 C 21.128906 30.195312 21.652344 30.445312 22.195312 30.636719 C 23.855469 31.207031 24.9375 30.460938 25.019531 28.6875 C 25.019531 28.445312 25.019531 28.199219 25.019531 27.957031 C 24.980469 26.929688 24.949219 26.933594 23.976562 26.589844 C 21.777344 25.796875 19.960938 24.480469 18.515625 22.640625 C 17.589844 21.503906 16.832031 20.273438 16.578125 18.789062 C 16.46875 18.144531 16.332031 17.460938 16.914062 17.015625 C 17.496094 16.570312 18.089844 16.882812 18.640625 17.132812 C 19.785156 17.644531 20.8125 18.320312 21.730469 19.167969 C 22.652344 20.015625 23.410156 20.988281 24.011719 22.085938 C 24.542969 23.171875 25.007812 24.285156 25.40625 25.429688 C 25.488281 25.621094 25.550781 25.808594 25.617188 25.996094 C 28.082031 26.414062 29.382812 25.234375 30.132812 23.976562 C 30.699219 23.015625 31.011719 21.980469 31.078125 20.871094 C 31.117188 20.109375 30.910156 19.425781 30.457031 18.816406 C 30.078125 18.296875 29.746094 17.710938 30.136719 17.140625 C 30.53125 16.570312 31.246094 16.632812 31.890625 16.761719 C 33.207031 17.011719 34.308594 17.710938 35.40625 18.417969 C 35.785156 18.65625 36.164062 18.886719 36.679688 19.214844 C 36.609375 18.664062 36.554688 18.308594 36.511719 17.953125 C 36.375 16.777344 36.820312 16.054688 37.984375 15.816406 C 38.816406 15.648438 39.65625 15.605469 40.503906 15.679688 C 42.023438 15.832031 43.542969 16.203125 45.09375 16.316406 C 46.125 16.359375 47.148438 16.277344 48.15625 16.066406 C 48.617188 15.992188 49.03125 15.804688 49.394531 15.511719 C 49.757812 15.21875 50.027344 14.851562 50.195312 14.417969 C 50.242188 14.347656 50.269531 14.269531 50.277344 14.183594 C 50.285156 14.097656 50.273438 14.015625 50.246094 13.9375 C 50.21875 13.859375 50.171875 13.789062 50.113281 13.730469 C 50.050781 13.667969 49.980469 13.625 49.902344 13.597656 C 49.738281 13.515625 49.570312 13.449219 49.390625 13.402344 C 48.441406 13.15625 48.046875 13.554688 48.285156 14.589844 L 47.605469 14.96875 C 47.019531 14.433594 47.117188 13.832031 47.351562 13.277344 C 47.488281 12.957031 47.707031 12.707031 48.007812 12.53125 C 48.304688 12.355469 48.628906 12.28125 48.972656 12.320312 C 49.773438 12.355469 50.449219 12.664062 51 13.238281 C 51.304688 13.550781 51.394531 13.917969 51.265625 14.335938 C 51.089844 15.179688 50.648438 15.84375 49.933594 16.332031 C 48.953125 16.992188 47.867188 17.339844 46.683594 17.367188 C 45.40625 17.4375 44.140625 17.332031 42.886719 17.058594 C 41.613281 16.796875 40.335938 16.5 39.015625 16.597656 C 38.773438 16.609375 38.53125 16.628906 38.289062 16.667969 C 37.5 16.8125 37.335938 17.015625 37.371094 17.839844 C 37.371094 18.21875 37.441406 18.566406 37.480469 18.925781 C 37.523438 19.105469 37.511719 19.285156 37.441406 19.457031 C 37.371094 19.628906 37.257812 19.765625 37.101562 19.867188 C 36.949219 19.976562 36.777344 20.027344 36.589844 20.027344 C 36.402344 20.023438 36.234375 19.964844 36.085938 19.847656 C 35.527344 19.46875 34.972656 19.113281 34.410156 18.75 C 33.578125 18.160156 32.65625 17.789062 31.648438 17.636719 C 31.410156 17.609375 31.179688 17.628906 30.695312 17.628906 Z M 24.621094 25.851562 C 24.335938 24.621094 23.875 23.460938 23.226562 22.371094 C 22.160156 20.503906 20.671875 19.066406 18.769531 18.058594 C 18.332031 17.828125 17.878906 17.542969 17.300781 17.75 C 17.175781 18.464844 17.285156 19.140625 17.636719 19.777344 C 18.222656 21.09375 19.03125 22.257812 20.070312 23.261719 C 21.109375 24.265625 22.296875 25.035156 23.632812 25.578125 C 23.957031 25.6875 24.28125 25.777344 24.613281 25.851562 Z M 14.308594 58.167969 C 14.117188 57.707031 13.894531 57.261719 13.648438 56.824219 C 13.429688 56.5 13.160156 56.226562 12.839844 56.003906 C 12.78125 55.957031 12.714844 55.921875 12.640625 55.90625 C 12.5625 55.886719 12.488281 55.886719 12.414062 55.90625 C 12.339844 55.925781 12.273438 55.957031 12.214844 56.007812 C 12.15625 56.058594 12.109375 56.121094 12.082031 56.191406 C 11.839844 56.65625 12.082031 57.652344 12.53125 58.113281 C 12.984375 58.570312 13.5 58.617188 14.308594 58.167969 Z M 14.308594 58.167969 " fill-opacity="1" fill-rule="nonzero"/><path fill="#0f52ba" d="M 349.085938 27.03125 C 348.707031 26.984375 348.328125 26.921875 347.949219 26.898438 C 346.050781 26.773438 344.777344 25.714844 343.949219 24.132812 C 343.535156 23.253906 343.25 22.335938 343.09375 21.375 C 342.894531 20.300781 343.105469 19.316406 343.726562 18.417969 C 343.855469 18.214844 343.972656 18.007812 344.160156 17.695312 C 343.914062 17.632812 343.667969 17.609375 343.417969 17.628906 C 342.605469 17.855469 341.8125 18.140625 341.042969 18.484375 C 340.324219 18.878906 339.632812 19.320312 338.972656 19.800781 C 338.816406 19.933594 338.636719 20.003906 338.433594 20.011719 C 338.230469 20.023438 338.042969 19.96875 337.875 19.855469 C 337.71875 19.753906 337.605469 19.613281 337.535156 19.4375 C 337.464844 19.265625 337.453125 19.085938 337.496094 18.902344 C 337.527344 18.523438 337.570312 18.117188 337.578125 17.722656 C 337.578125 17 337.445312 16.738281 336.734375 16.691406 C 335.734375 16.621094 334.738281 16.640625 333.746094 16.757812 C 332.035156 16.976562 330.363281 17.472656 328.609375 17.382812 C 327.332031 17.378906 326.15625 17.039062 325.074219 16.367188 C 324.414062 15.929688 323.972656 15.332031 323.746094 14.574219 C 323.679688 14.425781 323.640625 14.269531 323.636719 14.109375 C 323.628906 13.945312 323.652344 13.789062 323.707031 13.632812 C 323.757812 13.480469 323.839844 13.34375 323.949219 13.222656 C 324.054688 13.101562 324.183594 13.003906 324.328125 12.929688 C 325.050781 12.441406 325.824219 12.105469 326.714844 12.453125 C 327.746094 12.832031 328.0625 13.96875 327.386719 14.945312 C 327.15625 14.84375 326.917969 14.734375 326.683594 14.632812 C 326.671875 14.527344 326.671875 14.421875 326.683594 14.320312 C 326.84375 13.644531 326.617188 13.308594 325.976562 13.339844 C 325.433594 13.332031 324.992188 13.539062 324.652344 13.960938 C 324.867188 15.171875 325.699219 15.789062 326.824219 16.082031 C 328.257812 16.433594 329.703125 16.472656 331.15625 16.191406 C 332.265625 16.003906 333.363281 15.757812 334.480469 15.671875 C 335.328125 15.605469 336.167969 15.65625 337.003906 15.824219 C 338.09375 16.039062 338.519531 16.6875 338.445312 17.804688 C 338.417969 18.214844 338.359375 18.621094 338.292969 19.210938 C 338.742188 18.925781 339.050781 18.722656 339.34375 18.554688 C 340.246094 17.996094 341.175781 17.488281 342.136719 17.035156 C 342.761719 16.792969 343.410156 16.699219 344.078125 16.746094 C 344.867188 16.792969 345.140625 17.363281 344.867188 18.121094 C 344.769531 18.371094 344.644531 18.609375 344.488281 18.832031 C 343.921875 19.652344 343.746094 20.550781 343.964844 21.527344 C 344.085938 22.121094 344.257812 22.703125 344.480469 23.265625 C 345.175781 24.960938 346.628906 26.394531 349.335938 26.019531 C 349.417969 25.773438 349.511719 25.492188 349.601562 25.214844 C 350.589844 21.910156 352.472656 19.285156 355.488281 17.542969 C 356.015625 17.242188 356.574219 17.015625 357.167969 16.867188 C 357.996094 16.667969 358.535156 17.058594 358.464844 17.898438 C 358.429688 18.78125 358.226562 19.625 357.863281 20.429688 C 356.257812 23.566406 353.800781 25.746094 350.367188 26.742188 C 350.300781 26.773438 350.234375 26.8125 350.171875 26.851562 C 349.976562 27.378906 349.898438 27.925781 349.945312 28.488281 C 349.992188 29.046875 350.152344 29.574219 350.433594 30.0625 C 350.554688 30.339844 350.746094 30.546875 351.011719 30.691406 C 351.277344 30.832031 351.558594 30.875 351.855469 30.820312 C 352.414062 30.703125 352.964844 30.542969 353.503906 30.34375 C 354.261719 30.082031 355.023438 29.730469 355.816406 29.519531 C 356.925781 29.222656 357.46875 29.617188 357.679688 30.757812 C 357.839844 31.742188 357.714844 32.691406 357.300781 33.601562 C 356.816406 34.738281 356.246094 35.851562 355.710938 36.972656 C 355.550781 37.316406 355.371094 37.660156 355.09375 38.210938 C 355.472656 38.039062 355.648438 37.949219 355.832031 37.886719 C 356.359375 37.664062 356.898438 37.480469 357.457031 37.339844 C 358.972656 37.0625 360.113281 37.851562 360.308594 39.398438 C 360.425781 40.304688 360.382812 41.203125 360.179688 42.097656 C 359.675781 44.214844 359.011719 46.300781 358.445312 48.40625 C 357.925781 50.148438 357.78125 51.921875 358.007812 53.722656 C 358.199219 55.054688 358.566406 56.335938 359.523438 57.351562 C 359.730469 57.570312 359.949219 57.769531 360.238281 58.046875 C 360.382812 57.703125 360.484375 57.4375 360.597656 57.175781 C 360.835938 56.523438 361.238281 56.003906 361.808594 55.617188 C 362.621094 55.132812 363.328125 55.476562 363.449219 56.410156 C 363.652344 57.980469 362.550781 59.070312 360.960938 58.921875 C 360.78125 58.925781 360.605469 58.953125 360.433594 59 C 360.34375 58.828125 360.230469 58.671875 360.09375 58.535156 C 358.050781 57.042969 357.519531 54.882812 357.4375 52.53125 C 357.410156 50.914062 357.628906 49.332031 358.09375 47.78125 C 358.609375 45.882812 359.152344 43.984375 359.683594 42.085938 C 359.941406 41.195312 359.980469 40.292969 359.789062 39.382812 C 359.539062 38.222656 358.792969 37.679688 357.605469 37.839844 C 356.945312 37.929688 356.335938 38.144531 355.765625 38.484375 C 355.199219 38.824219 354.722656 39.261719 354.335938 39.800781 C 354.214844 39.964844 354.105469 40.136719 353.863281 40.496094 C 353.773438 40.152344 353.652344 39.96875 353.695312 39.847656 C 353.863281 39.421875 354.054688 39.007812 354.261719 38.605469 C 354.925781 37.273438 355.625 35.945312 356.25 34.617188 C 356.765625 33.632812 357.039062 32.585938 357.070312 31.472656 C 357.070312 31.230469 357.042969 30.992188 356.996094 30.753906 C 356.988281 30.667969 356.964844 30.585938 356.925781 30.511719 C 356.882812 30.4375 356.824219 30.375 356.757812 30.328125 C 356.6875 30.277344 356.609375 30.246094 356.523438 30.234375 C 356.441406 30.21875 356.355469 30.222656 356.273438 30.246094 C 355.859375 30.320312 355.449219 30.429688 355.050781 30.574219 C 354.367188 30.828125 353.695312 31.109375 353.035156 31.417969 C 350.671875 32.507812 349.335938 30.65625 349.097656 28.859375 C 349.058594 28.25 349.054688 27.640625 349.085938 27.03125 Z M 350.402344 25.832031 C 350.714844 25.765625 351.027344 25.683594 351.332031 25.582031 C 352.667969 25.042969 353.859375 24.273438 354.894531 23.269531 C 355.933594 22.265625 356.746094 21.105469 357.332031 19.789062 C 357.691406 19.140625 357.816406 18.449219 357.710938 17.71875 C 357.109375 17.640625 356.5625 17.78125 356.070312 18.136719 C 354.269531 19.121094 352.855469 20.5 351.820312 22.273438 C 351.125 23.371094 350.652344 24.558594 350.402344 25.832031 Z M 360.710938 58.21875 C 361.933594 58.808594 362.988281 58.136719 362.988281 56.78125 C 362.996094 56.476562 362.894531 56.214844 362.683594 55.996094 C 362.386719 55.757812 362.058594 55.996094 361.804688 56.21875 C 361.257812 56.785156 360.890625 57.449219 360.710938 58.21875 Z M 360.710938 58.21875 " fill-opacity="1" fill-rule="nonzero"/><path fill="#0f52ba" d="M 350.160156 235.574219 C 351.863281 236.054688 353.394531 236.867188 354.746094 238.003906 C 356.101562 239.144531 357.160156 240.511719 357.925781 242.109375 C 358.257812 242.855469 358.4375 243.636719 358.472656 244.453125 C 358.539062 245.359375 358.019531 245.746094 357.132812 245.527344 C 356.542969 245.378906 355.988281 245.148438 355.460938 244.839844 C 352.472656 243.117188 350.617188 240.507812 349.613281 237.25 C 349.523438 236.96875 349.449219 236.679688 349.355469 236.367188 C 347.59375 236.1875 346.121094 236.585938 345.082031 238.058594 C 344.355469 239.105469 343.960938 240.269531 343.902344 241.542969 C 343.867188 242.230469 344.039062 242.863281 344.414062 243.441406 C 344.570312 243.664062 344.710938 243.898438 344.839844 244.140625 C 345.21875 245.019531 344.839844 245.695312 343.890625 245.65625 C 343.191406 245.644531 342.515625 245.507812 341.871094 245.242188 C 340.996094 244.820312 340.152344 244.347656 339.332031 243.824219 C 339.050781 243.660156 338.789062 243.46875 338.335938 243.171875 C 338.371094 243.632812 338.382812 243.929688 338.421875 244.1875 C 338.625 245.734375 338.148438 246.363281 336.617188 246.675781 C 335.394531 246.921875 334.203125 246.707031 333.003906 246.527344 C 331.902344 246.320312 330.792969 246.167969 329.675781 246.070312 C 328.730469 246.035156 327.800781 246.113281 326.875 246.3125 C 326.328125 246.390625 325.855469 246.617188 325.449219 246.992188 C 325.042969 247.367188 324.78125 247.828125 324.664062 248.363281 C 324.898438 248.8125 325.273438 249.042969 325.777344 249.058594 C 326.640625 249.175781 326.917969 248.832031 326.664062 247.921875 C 326.789062 247.808594 326.921875 247.707031 327.066406 247.621094 C 327.445312 247.441406 327.632812 247.621094 327.730469 247.972656 C 327.804688 248.21875 327.816406 248.46875 327.777344 248.722656 C 327.734375 248.972656 327.640625 249.203125 327.492188 249.414062 C 327.34375 249.621094 327.15625 249.789062 326.933594 249.910156 C 326.707031 250.035156 326.46875 250.101562 326.210938 250.117188 C 325.304688 250.15625 324.546875 249.84375 323.933594 249.175781 C 323.621094 248.816406 323.554688 248.414062 323.730469 247.972656 C 323.929688 247.195312 324.359375 246.578125 325.019531 246.125 C 326.101562 245.359375 327.304688 245.003906 328.625 245.066406 C 329.953125 245.109375 331.285156 245.316406 332.59375 245.480469 C 333.351562 245.574219 334.085938 245.800781 334.839844 245.839844 C 335.5625 245.851562 336.285156 245.800781 337.003906 245.683594 C 337.195312 245.671875 337.351562 245.585938 337.472656 245.4375 C 337.59375 245.289062 337.644531 245.117188 337.617188 244.925781 C 337.617188 244.503906 337.574219 244.078125 337.539062 243.65625 C 337.5 243.234375 337.488281 242.808594 337.957031 242.550781 C 338.421875 242.296875 338.769531 242.492188 339.136719 242.734375 C 339.742188 243.136719 340.332031 243.574219 340.972656 243.910156 C 341.621094 244.242188 342.289062 244.519531 342.976562 244.742188 C 343.394531 244.828125 343.8125 244.867188 344.234375 244.867188 C 343.601562 243.804688 343.027344 242.875 343.054688 241.738281 C 343.097656 240.636719 343.351562 239.582031 343.8125 238.578125 C 344.289062 237.558594 345.003906 236.757812 345.957031 236.167969 C 346.917969 235.507812 348.023438 235.539062 349.113281 235.441406 C 349.113281 234.992188 349.148438 234.578125 349.113281 234.171875 C 349.0625 233.363281 349.25 232.613281 349.675781 231.925781 C 349.792969 231.691406 349.949219 231.484375 350.140625 231.304688 C 350.328125 231.125 350.546875 230.984375 350.785156 230.878906 C 351.027344 230.777344 351.277344 230.714844 351.539062 230.699219 C 351.800781 230.683594 352.054688 230.710938 352.308594 230.785156 C 353.066406 231.003906 353.777344 231.351562 354.511719 231.628906 C 355.050781 231.851562 355.597656 232.042969 356.152344 232.203125 C 356.652344 232.332031 356.941406 232.15625 357.007812 231.652344 C 357.105469 231.109375 357.09375 230.570312 356.976562 230.035156 C 356.671875 228.957031 356.292969 227.910156 355.839844 226.886719 C 355.238281 225.5625 354.515625 224.292969 353.882812 222.988281 C 353.765625 222.746094 353.410156 222.40625 353.949219 222.101562 C 354.074219 222.257812 354.203125 222.410156 354.332031 222.570312 C 355.078125 223.636719 356.089844 224.300781 357.367188 224.558594 C 358.75 224.851562 359.597656 224.25 359.84375 222.863281 C 359.988281 222.011719 359.941406 221.171875 359.703125 220.339844 C 359.101562 218.152344 358.464844 215.96875 357.898438 213.765625 C 357.40625 211.984375 357.296875 210.179688 357.578125 208.355469 C 357.875 206.589844 358.542969 205.046875 360.039062 203.953125 C 360.195312 203.800781 360.335938 203.632812 360.453125 203.449219 C 360.738281 203.449219 361.089844 203.449219 361.4375 203.449219 C 362.832031 203.449219 363.945312 205.214844 363.335938 206.488281 C 363.085938 207.003906 362.644531 207.246094 362.148438 206.953125 C 361.679688 206.675781 361.285156 206.320312 360.957031 205.886719 C 360.675781 205.421875 360.441406 204.933594 360.257812 204.425781 C 359.496094 205 358.933594 205.730469 358.566406 206.613281 C 357.816406 208.503906 357.675781 210.441406 358.136719 212.425781 C 358.65625 214.730469 359.324219 216.980469 359.953125 219.257812 C 360.308594 220.371094 360.453125 221.511719 360.386719 222.675781 C 360.203125 224.617188 358.910156 225.546875 357.039062 225.011719 C 356.414062 224.832031 355.828125 224.53125 355.113281 224.25 C 355.632812 225.277344 356.113281 226.210938 356.582031 227.148438 C 357.113281 228.207031 357.617188 229.285156 357.722656 230.480469 C 357.769531 230.992188 357.738281 231.5 357.628906 232 C 357.460938 232.785156 356.945312 233.117188 356.144531 232.976562 C 355.613281 232.859375 355.09375 232.703125 354.585938 232.503906 C 353.824219 232.242188 353.121094 231.914062 352.367188 231.691406 C 351.355469 231.390625 350.847656 231.65625 350.363281 232.570312 C 349.8125 233.550781 349.878906 234.546875 350.160156 235.574219 Z M 357.671875 244.757812 C 357.808594 244.019531 357.695312 243.320312 357.335938 242.664062 C 356.746094 241.328125 355.921875 240.15625 354.871094 239.144531 C 353.820312 238.132812 352.617188 237.359375 351.261719 236.816406 C 350.957031 236.722656 350.644531 236.648438 350.328125 236.59375 C 351.296875 240.089844 353.132812 242.714844 356.222656 244.386719 C 356.660156 244.6875 357.140625 244.8125 357.671875 244.757812 Z M 360.710938 204.160156 C 360.863281 204.972656 361.242188 205.660156 361.847656 206.222656 C 362.050781 206.390625 362.496094 206.570312 362.609375 206.476562 C 362.855469 206.25 362.980469 205.972656 362.988281 205.640625 C 362.988281 204.332031 362.054688 203.730469 360.710938 204.160156 Z M 360.710938 204.160156 " fill-opacity="1" fill-rule="nonzero"/><g fill="#0f52ba" fill-opacity="1"><g transform="translate(306.030297, 10.750855)"><g><path d="M -0.34375 0 L -0.265625 0 L -0.265625 0.28125 L -0.015625 0.703125 L -0.109375 0.703125 L -0.296875 0.375 L -0.3125 0.375 L -0.484375 0.703125 L -0.578125 0.703125 L -0.34375 0.28125 Z M -0.34375 0 "/></g></g><g transform="translate(305.428978, 10.750855)"><g><path d="M -0.3125 -0.015625 C -0.257812 -0.015625 -0.210938 -0.00390625 -0.171875 0.015625 C -0.140625 0.0351562 -0.113281 0.0664062 -0.09375 0.109375 C -0.0703125 0.160156 -0.0625 0.210938 -0.0625 0.265625 C -0.0625 0.328125 -0.0703125 0.375 -0.09375 0.40625 C -0.113281 0.445312 -0.140625 0.476562 -0.171875 0.5 C -0.210938 0.519531 -0.257812 0.53125 -0.3125 0.53125 C -0.351562 0.53125 -0.390625 0.519531 -0.421875 0.5 C -0.460938 0.476562 -0.492188 0.445312 -0.515625 0.40625 C -0.535156 0.375 -0.546875 0.328125 -0.546875 0.265625 C -0.546875 0.210938 -0.535156 0.160156 -0.515625 0.109375 C -0.492188 0.0664062 -0.460938 0.0351562 -0.421875 0.015625 C -0.390625 -0.00390625 -0.351562 -0.015625 -0.3125 -0.015625 Z M -0.3125 0.0625 C -0.351562 0.0625 -0.382812 0.078125 -0.40625 0.109375 C -0.4375 0.140625 -0.453125 0.191406 -0.453125 0.265625 C -0.453125 0.335938 -0.4375 0.390625 -0.40625 0.421875 C -0.382812 0.453125 -0.351562 0.46875 -0.3125 0.46875 C -0.257812 0.46875 -0.21875 0.453125 -0.1875 0.421875 C -0.15625 0.390625 -0.140625 0.335938 -0.140625 0.265625 C -0.140625 0.191406 -0.15625 0.140625 -0.1875 0.109375 C -0.21875 0.078125 -0.257812 0.0625 -0.3125 0.0625 Z M -0.3125 0.0625 "/></g></g><g transform="translate(304.823354, 10.750855)"><g><path d="M -0.265625 -0.015625 C -0.203125 -0.015625 -0.15625 0 -0.125 0.03125 C -0.09375 0.0703125 -0.078125 0.125 -0.078125 0.1875 L -0.078125 0.515625 L -0.171875 0.515625 L -0.171875 0.1875 C -0.171875 0.101562 -0.207031 0.0625 -0.28125 0.0625 C -0.332031 0.0625 -0.367188 0.078125 -0.390625 0.109375 C -0.410156 0.140625 -0.421875 0.191406 -0.421875 0.265625 L -0.421875 0.515625 L -0.5 0.515625 L -0.5 0 L -0.421875 0 L -0.421875 0.09375 C -0.398438 0.0507812 -0.378906 0.0195312 -0.359375 0 C -0.335938 -0.0078125 -0.304688 -0.015625 -0.265625 -0.015625 Z M -0.265625 -0.015625 "/></g></g><g transform="translate(304.223949, 10.750855)"><g><path d="M -0.09375 0 L -0.09375 0.515625 L -0.171875 0.515625 L -0.171875 0.4375 L -0.1875 0.4375 C -0.207031 0.5 -0.253906 0.53125 -0.328125 0.53125 C -0.359375 0.53125 -0.378906 0.523438 -0.390625 0.515625 L -0.375 0.4375 C -0.351562 0.445312 -0.332031 0.453125 -0.3125 0.453125 C -0.269531 0.453125 -0.234375 0.4375 -0.203125 0.40625 C -0.179688 0.382812 -0.171875 0.335938 -0.171875 0.265625 L -0.171875 0 Z M -0.09375 0 "/></g></g><g transform="translate(303.816373, 10.750855)"><g/></g><g transform="translate(303.576229, 10.750855)"><g><path d="M -0.09375 -0.21875 L -0.09375 0.515625 L -0.171875 0.515625 L -0.171875 0.4375 L -0.1875 0.4375 C -0.226562 0.5 -0.285156 0.53125 -0.359375 0.53125 C -0.390625 0.53125 -0.421875 0.519531 -0.453125 0.5 C -0.492188 0.476562 -0.519531 0.445312 -0.53125 0.40625 C -0.550781 0.375 -0.5625 0.328125 -0.5625 0.265625 C -0.5625 0.203125 -0.550781 0.148438 -0.53125 0.109375 C -0.519531 0.0664062 -0.492188 0.0351562 -0.453125 0.015625 C -0.421875 -0.00390625 -0.390625 -0.015625 -0.359375 -0.015625 C -0.316406 -0.015625 -0.28125 -0.0078125 -0.25 0 C -0.226562 0.0195312 -0.207031 0.046875 -0.1875 0.078125 L -0.171875 0.0625 L -0.171875 -0.21875 Z M -0.34375 0.0625 C -0.4375 0.0625 -0.484375 0.128906 -0.484375 0.265625 C -0.484375 0.398438 -0.4375 0.46875 -0.34375 0.46875 C -0.300781 0.46875 -0.269531 0.457031 -0.25 0.4375 C -0.226562 0.425781 -0.207031 0.40625 -0.1875 0.375 C -0.175781 0.351562 -0.171875 0.316406 -0.171875 0.265625 C -0.171875 0.222656 -0.175781 0.1875 -0.1875 0.15625 C -0.207031 0.125 -0.226562 0.0976562 -0.25 0.078125 C -0.269531 0.0664062 -0.300781 0.0625 -0.34375 0.0625 Z M -0.34375 0.0625 "/></g></g><g transform="translate(302.946686, 10.750855)"><g><path d="M -0.21875 -0.015625 C -0.164062 -0.015625 -0.125 0 -0.09375 0.03125 C -0.0625 0.0625 -0.046875 0.101562 -0.046875 0.15625 C -0.046875 0.1875 -0.0507812 0.210938 -0.0625 0.234375 C -0.0820312 0.253906 -0.101562 0.269531 -0.125 0.28125 C -0.15625 0.300781 -0.195312 0.3125 -0.25 0.3125 C -0.28125 0.320312 -0.304688 0.328125 -0.328125 0.328125 C -0.347656 0.335938 -0.359375 0.347656 -0.359375 0.359375 C -0.367188 0.367188 -0.375 0.378906 -0.375 0.390625 C -0.375 0.410156 -0.363281 0.425781 -0.34375 0.4375 C -0.332031 0.457031 -0.3125 0.46875 -0.28125 0.46875 C -0.238281 0.46875 -0.207031 0.457031 -0.1875 0.4375 C -0.164062 0.425781 -0.144531 0.410156 -0.125 0.390625 L -0.109375 0.390625 L -0.078125 0.4375 C -0.0976562 0.46875 -0.125 0.488281 -0.15625 0.5 C -0.1875 0.519531 -0.226562 0.53125 -0.28125 0.53125 C -0.34375 0.53125 -0.382812 0.515625 -0.40625 0.484375 C -0.4375 0.460938 -0.453125 0.425781 -0.453125 0.375 L -0.453125 0.109375 C -0.453125 0.078125 -0.460938 0.0625 -0.484375 0.0625 C -0.492188 0.0625 -0.503906 0.0625 -0.515625 0.0625 L -0.53125 0.015625 C -0.519531 0.00390625 -0.507812 0 -0.5 0 C -0.488281 0 -0.476562 0 -0.46875 0 C -0.4375 0 -0.414062 0.00390625 -0.40625 0.015625 C -0.394531 0.0234375 -0.382812 0.046875 -0.375 0.078125 C -0.363281 0.046875 -0.34375 0.0195312 -0.3125 0 C -0.289062 -0.0078125 -0.257812 -0.015625 -0.21875 -0.015625 Z M -0.234375 0.046875 C -0.265625 0.046875 -0.289062 0.0507812 -0.3125 0.0625 C -0.332031 0.0820312 -0.347656 0.101562 -0.359375 0.125 C -0.367188 0.15625 -0.375 0.1875 -0.375 0.21875 L -0.375 0.296875 C -0.363281 0.285156 -0.347656 0.273438 -0.328125 0.265625 C -0.316406 0.265625 -0.296875 0.257812 -0.265625 0.25 C -0.234375 0.25 -0.207031 0.242188 -0.1875 0.234375 C -0.164062 0.222656 -0.148438 0.210938 -0.140625 0.203125 C -0.140625 0.191406 -0.140625 0.175781 -0.140625 0.15625 C -0.140625 0.125 -0.144531 0.0976562 -0.15625 0.078125 C -0.175781 0.0546875 -0.203125 0.046875 -0.234375 0.046875 Z M -0.234375 0.046875 "/></g></g><g transform="translate(302.400859, 10.750855)"><g><path d="M -0.09375 0 L -0.09375 0.515625 L -0.171875 0.515625 L -0.171875 0.4375 L -0.1875 0.4375 C -0.207031 0.5 -0.253906 0.53125 -0.328125 0.53125 C -0.359375 0.53125 -0.378906 0.523438 -0.390625 0.515625 L -0.375 0.4375 C -0.351562 0.445312 -0.332031 0.453125 -0.3125 0.453125 C -0.269531 0.453125 -0.234375 0.4375 -0.203125 0.40625 C -0.179688 0.382812 -0.171875 0.335938 -0.171875 0.265625 L -0.171875 0 Z M -0.09375 0 "/></g></g><g transform="translate(301.993283, 10.750855)"><g><path d="M -0.21875 -0.015625 C -0.164062 -0.015625 -0.125 0 -0.09375 0.03125 C -0.0625 0.0625 -0.046875 0.101562 -0.046875 0.15625 C -0.046875 0.1875 -0.0507812 0.210938 -0.0625 0.234375 C -0.0820312 0.253906 -0.101562 0.269531 -0.125 0.28125 C -0.15625 0.300781 -0.195312 0.3125 -0.25 0.3125 C -0.28125 0.320312 -0.304688 0.328125 -0.328125 0.328125 C -0.347656 0.335938 -0.359375 0.347656 -0.359375 0.359375 C -0.367188 0.367188 -0.375 0.378906 -0.375 0.390625 C -0.375 0.410156 -0.363281 0.425781 -0.34375 0.4375 C -0.332031 0.457031 -0.3125 0.46875 -0.28125 0.46875 C -0.238281 0.46875 -0.207031 0.457031 -0.1875 0.4375 C -0.164062 0.425781 -0.144531 0.410156 -0.125 0.390625 L -0.109375 0.390625 L -0.078125 0.4375 C -0.0976562 0.46875 -0.125 0.488281 -0.15625 0.5 C -0.1875 0.519531 -0.226562 0.53125 -0.28125 0.53125 C -0.34375 0.53125 -0.382812 0.515625 -0.40625 0.484375 C -0.4375 0.460938 -0.453125 0.425781 -0.453125 0.375 L -0.453125 0.109375 C -0.453125 0.078125 -0.460938 0.0625 -0.484375 0.0625 C -0.492188 0.0625 -0.503906 0.0625 -0.515625 0.0625 L -0.53125 0.015625 C -0.519531 0.00390625 -0.507812 0 -0.5 0 C -0.488281 0 -0.476562 0 -0.46875 0 C -0.4375 0 -0.414062 0.00390625 -0.40625 0.015625 C -0.394531 0.0234375 -0.382812 0.046875 -0.375 0.078125 C -0.363281 0.046875 -0.34375 0.0195312 -0.3125 0 C -0.289062 -0.0078125 -0.257812 -0.015625 -0.21875 -0.015625 Z M -0.234375 0.046875 C -0.265625 0.046875 -0.289062 0.0507812 -0.3125 0.0625 C -0.332031 0.0820312 -0.347656 0.101562 -0.359375 0.125 C -0.367188 0.15625 -0.375 0.1875 -0.375 0.21875 L -0.375 0.296875 C -0.363281 0.285156 -0.347656 0.273438 -0.328125 0.265625 C -0.316406 0.265625 -0.296875 0.257812 -0.265625 0.25 C -0.234375 0.25 -0.207031 0.242188 -0.1875 0.234375 C -0.164062 0.222656 -0.148438 0.210938 -0.140625 0.203125 C -0.140625 0.191406 -0.140625 0.175781 -0.140625 0.15625 C -0.140625 0.125 -0.144531 0.0976562 -0.15625 0.078125 C -0.175781 0.0546875 -0.203125 0.046875 -0.234375 0.046875 Z M -0.234375 0.046875 "/></g></g><g transform="translate(301.447456, 10.750855)"><g><path d="M -0.28125 -0.234375 C -0.195312 -0.234375 -0.132812 -0.21875 -0.09375 -0.1875 C -0.0507812 -0.15625 -0.03125 -0.117188 -0.03125 -0.078125 C -0.03125 -0.046875 -0.0390625 -0.0195312 -0.0625 0 C -0.0820312 0.0195312 -0.109375 0.03125 -0.140625 0.03125 L -0.140625 0.046875 C -0.117188 0.0546875 -0.101562 0.0664062 -0.09375 0.078125 C -0.09375 0.0859375 -0.09375 0.101562 -0.09375 0.125 C -0.09375 0.144531 -0.0976562 0.160156 -0.109375 0.171875 C -0.117188 0.191406 -0.140625 0.203125 -0.171875 0.203125 L -0.171875 0.21875 C -0.109375 0.25 -0.078125 0.300781 -0.078125 0.375 C -0.078125 0.394531 -0.0820312 0.414062 -0.09375 0.4375 C -0.113281 0.46875 -0.140625 0.488281 -0.171875 0.5 C -0.203125 0.519531 -0.238281 0.53125 -0.28125 0.53125 C -0.320312 0.53125 -0.351562 0.519531 -0.375 0.5 C -0.382812 0.507812 -0.390625 0.519531 -0.390625 0.53125 C -0.398438 0.550781 -0.40625 0.570312 -0.40625 0.59375 L -0.421875 0.59375 L -0.484375 0.578125 C -0.484375 0.554688 -0.472656 0.535156 -0.453125 0.515625 C -0.441406 0.492188 -0.425781 0.476562 -0.40625 0.46875 L -0.40625 0.453125 C -0.425781 0.441406 -0.4375 0.425781 -0.4375 0.40625 C -0.445312 0.382812 -0.453125 0.367188 -0.453125 0.359375 C -0.453125 0.328125 -0.441406 0.296875 -0.421875 0.265625 C -0.410156 0.242188 -0.390625 0.222656 -0.359375 0.203125 C -0.335938 0.191406 -0.3125 0.1875 -0.28125 0.1875 C -0.269531 0.1875 -0.257812 0.1875 -0.25 0.1875 C -0.238281 0.1875 -0.226562 0.1875 -0.21875 0.1875 C -0.207031 0.1875 -0.195312 0.179688 -0.1875 0.171875 C -0.175781 0.160156 -0.171875 0.148438 -0.171875 0.140625 C -0.171875 0.117188 -0.175781 0.101562 -0.1875 0.09375 C -0.195312 0.09375 -0.210938 0.09375 -0.234375 0.09375 L -0.359375 0.078125 C -0.410156 0.078125 -0.445312 0.0664062 -0.46875 0.046875 C -0.5 0.0234375 -0.515625 -0.0078125 -0.515625 -0.0625 C -0.515625 -0.09375 -0.503906 -0.117188 -0.484375 -0.140625 C -0.460938 -0.171875 -0.4375 -0.191406 -0.40625 -0.203125 C -0.375 -0.222656 -0.332031 -0.234375 -0.28125 -0.234375 Z M -0.28125 0.25 C -0.3125 0.25 -0.332031 0.257812 -0.34375 0.28125 C -0.363281 0.300781 -0.375 0.328125 -0.375 0.359375 C -0.375 0.390625 -0.363281 0.414062 -0.34375 0.4375 C -0.332031 0.457031 -0.3125 0.46875 -0.28125 0.46875 C -0.238281 0.46875 -0.207031 0.457031 -0.1875 0.4375 C -0.164062 0.414062 -0.15625 0.390625 -0.15625 0.359375 C -0.15625 0.328125 -0.164062 0.300781 -0.1875 0.28125 C -0.207031 0.257812 -0.238281 0.25 -0.28125 0.25 Z M -0.28125 -0.15625 C -0.320312 -0.15625 -0.347656 -0.148438 -0.359375 -0.140625 C -0.378906 -0.140625 -0.394531 -0.128906 -0.40625 -0.109375 C -0.425781 -0.0976562 -0.4375 -0.0820312 -0.4375 -0.0625 C -0.4375 -0.0507812 -0.429688 -0.0390625 -0.421875 -0.03125 C -0.410156 -0.0195312 -0.398438 -0.0078125 -0.390625 0 C -0.378906 0 -0.367188 0 -0.359375 0 L -0.234375 0.015625 L -0.21875 0.015625 C -0.144531 0.015625 -0.109375 -0.0078125 -0.109375 -0.0625 C -0.109375 -0.125 -0.164062 -0.15625 -0.28125 -0.15625 Z M -0.28125 -0.15625 "/></g></g><g transform="translate(300.906891, 10.750855)"><g><path d="M -0.09375 0 L -0.09375 0.515625 L -0.171875 0.515625 L -0.171875 0.4375 L -0.1875 0.4375 C -0.207031 0.5 -0.253906 0.53125 -0.328125 0.53125 C -0.359375 0.53125 -0.378906 0.523438 -0.390625 0.515625 L -0.375 0.4375 C -0.351562 0.445312 -0.332031 0.453125 -0.3125 0.453125 C -0.269531 0.453125 -0.234375 0.4375 -0.203125 0.40625 C -0.179688 0.382812 -0.171875 0.335938 -0.171875 0.265625 L -0.171875 0 Z M -0.09375 0 "/></g></g><g transform="translate(300.499315, 10.750855)"><g><path d="M -0.21875 -0.015625 C -0.164062 -0.015625 -0.125 0 -0.09375 0.03125 C -0.0625 0.0625 -0.046875 0.101562 -0.046875 0.15625 C -0.046875 0.1875 -0.0507812 0.210938 -0.0625 0.234375 C -0.0820312 0.253906 -0.101562 0.269531 -0.125 0.28125 C -0.15625 0.300781 -0.195312 0.3125 -0.25 0.3125 C -0.28125 0.320312 -0.304688 0.328125 -0.328125 0.328125 C -0.347656 0.335938 -0.359375 0.347656 -0.359375 0.359375 C -0.367188 0.367188 -0.375 0.378906 -0.375 0.390625 C -0.375 0.410156 -0.363281 0.425781 -0.34375 0.4375 C -0.332031 0.457031 -0.3125 0.46875 -0.28125 0.46875 C -0.238281 0.46875 -0.207031 0.457031 -0.1875 0.4375 C -0.164062 0.425781 -0.144531 0.410156 -0.125 0.390625 L -0.109375 0.390625 L -0.078125 0.4375 C -0.0976562 0.46875 -0.125 0.488281 -0.15625 0.5 C -0.1875 0.519531 -0.226562 0.53125 -0.28125 0.53125 C -0.34375 0.53125 -0.382812 0.515625 -0.40625 0.484375 C -0.4375 0.460938 -0.453125 0.425781 -0.453125 0.375 L -0.453125 0.109375 C -0.453125 0.078125 -0.460938 0.0625 -0.484375 0.0625 C -0.492188 0.0625 -0.503906 0.0625 -0.515625 0.0625 L -0.53125 0.015625 C -0.519531 0.00390625 -0.507812 0 -0.5 0 C -0.488281 0 -0.476562 0 -0.46875 0 C -0.4375 0 -0.414062 0.00390625 -0.40625 0.015625 C -0.394531 0.0234375 -0.382812 0.046875 -0.375 0.078125 C -0.363281 0.046875 -0.34375 0.0195312 -0.3125 0 C -0.289062 -0.0078125 -0.257812 -0.015625 -0.21875 -0.015625 Z M -0.234375 0.046875 C -0.265625 0.046875 -0.289062 0.0507812 -0.3125 0.0625 C -0.332031 0.0820312 -0.347656 0.101562 -0.359375 0.125 C -0.367188 0.15625 -0.375 0.1875 -0.375 0.21875 L -0.375 0.296875 C -0.363281 0.285156 -0.347656 0.273438 -0.328125 0.265625 C -0.316406 0.265625 -0.296875 0.257812 -0.265625 0.25 C -0.234375 0.25 -0.207031 0.242188 -0.1875 0.234375 C -0.164062 0.222656 -0.148438 0.210938 -0.140625 0.203125 C -0.140625 0.191406 -0.140625 0.175781 -0.140625 0.15625 C -0.140625 0.125 -0.144531 0.0976562 -0.15625 0.078125 C -0.175781 0.0546875 -0.203125 0.046875 -0.234375 0.046875 Z M -0.234375 0.046875 "/></g></g><g transform="translate(299.953488, 10.750855)"><g><path d="M -0.09375 -0.21875 L -0.09375 0.515625 L -0.171875 0.515625 L -0.171875 0.4375 L -0.1875 0.4375 C -0.226562 0.5 -0.285156 0.53125 -0.359375 0.53125 C -0.390625 0.53125 -0.421875 0.519531 -0.453125 0.5 C -0.492188 0.476562 -0.519531 0.445312 -0.53125 0.40625 C -0.550781 0.375 -0.5625 0.328125 -0.5625 0.265625 C -0.5625 0.203125 -0.550781 0.148438 -0.53125 0.109375 C -0.519531 0.0664062 -0.492188 0.0351562 -0.453125 0.015625 C -0.421875 -0.00390625 -0.390625 -0.015625 -0.359375 -0.015625 C -0.316406 -0.015625 -0.28125 -0.0078125 -0.25 0 C -0.226562 0.0195312 -0.207031 0.046875 -0.1875 0.078125 L -0.171875 0.0625 L -0.171875 -0.21875 Z M -0.34375 0.0625 C -0.4375 0.0625 -0.484375 0.128906 -0.484375 0.265625 C -0.484375 0.398438 -0.4375 0.46875 -0.34375 0.46875 C -0.300781 0.46875 -0.269531 0.457031 -0.25 0.4375 C -0.226562 0.425781 -0.207031 0.40625 -0.1875 0.375 C -0.175781 0.351562 -0.171875 0.316406 -0.171875 0.265625 C -0.171875 0.222656 -0.175781 0.1875 -0.1875 0.15625 C -0.207031 0.125 -0.226562 0.0976562 -0.25 0.078125 C -0.269531 0.0664062 -0.300781 0.0625 -0.34375 0.0625 Z M -0.34375 0.0625 "/></g></g><g transform="translate(299.323946, 10.750855)"><g><path d="M -0.09375 0 L -0.09375 0.734375 L -0.171875 0.734375 L -0.171875 0.453125 L -0.1875 0.4375 C -0.21875 0.5 -0.269531 0.53125 -0.34375 0.53125 C -0.40625 0.53125 -0.445312 0.515625 -0.46875 0.484375 C -0.5 0.453125 -0.515625 0.40625 -0.515625 0.34375 L -0.515625 0 L -0.4375 0 L -0.4375 0.34375 C -0.4375 0.363281 -0.429688 0.382812 -0.421875 0.40625 C -0.421875 0.425781 -0.410156 0.441406 -0.390625 0.453125 C -0.378906 0.460938 -0.359375 0.46875 -0.328125 0.46875 C -0.285156 0.46875 -0.25 0.453125 -0.21875 0.421875 C -0.1875 0.390625 -0.171875 0.34375 -0.171875 0.28125 L -0.171875 0 Z M -0.09375 0 "/></g></g><g transform="translate(298.716408, 10.750855)"><g/></g><g transform="translate(298.476264, 10.750855)"><g><path d="M -0.359375 0.078125 L -0.375 0.03125 C -0.375 0.0195312 -0.363281 0.0078125 -0.34375 0 C -0.320312 -0.0078125 -0.296875 -0.015625 -0.265625 -0.015625 C -0.171875 -0.015625 -0.125 0.0351562 -0.125 0.140625 L -0.125 0.453125 L -0.03125 0.453125 L -0.03125 0.53125 L -0.125 0.53125 L -0.125 0.640625 L -0.203125 0.65625 L -0.203125 0.53125 L -0.375 0.53125 L -0.375 0.453125 L -0.203125 0.453125 L -0.203125 0.15625 C -0.203125 0.09375 -0.226562 0.0625 -0.28125 0.0625 C -0.3125 0.0625 -0.335938 0.0664062 -0.359375 0.078125 Z M -0.359375 0.078125 "/></g></g><g transform="translate(298.074428, 10.750855)"><g><path d="M -0.5 0.25 L -0.140625 0.25 C -0.140625 0.1875 -0.15625 0.140625 -0.1875 0.109375 C -0.21875 0.078125 -0.257812 0.0625 -0.3125 0.0625 C -0.351562 0.0625 -0.378906 0.0664062 -0.390625 0.078125 C -0.410156 0.0976562 -0.425781 0.117188 -0.4375 0.140625 L -0.453125 0.140625 L -0.5 0.109375 C -0.488281 0.078125 -0.460938 0.046875 -0.421875 0.015625 C -0.390625 -0.00390625 -0.351562 -0.015625 -0.3125 -0.015625 C -0.257812 -0.015625 -0.210938 -0.00390625 -0.171875 0.015625 C -0.140625 0.0351562 -0.113281 0.0664062 -0.09375 0.109375 C -0.0703125 0.148438 -0.0625 0.203125 -0.0625 0.265625 C -0.0625 0.328125 -0.0703125 0.375 -0.09375 0.40625 C -0.113281 0.445312 -0.140625 0.476562 -0.171875 0.5 C -0.210938 0.519531 -0.257812 0.53125 -0.3125 0.53125 C -0.363281 0.53125 -0.410156 0.507812 -0.453125 0.46875 C -0.492188 0.4375 -0.515625 0.382812 -0.515625 0.3125 C -0.515625 0.28125 -0.515625 0.257812 -0.515625 0.25 Z M -0.4375 0.3125 C -0.425781 0.363281 -0.410156 0.398438 -0.390625 0.421875 C -0.378906 0.453125 -0.351562 0.46875 -0.3125 0.46875 C -0.257812 0.46875 -0.21875 0.453125 -0.1875 0.421875 C -0.164062 0.398438 -0.148438 0.363281 -0.140625 0.3125 Z M -0.4375 0.3125 "/></g></g><g transform="translate(297.511858, 10.750855)"><g><path d="M -0.109375 0 L -0.03125 0 L -0.1875 0.28125 L -0.03125 0.515625 L -0.125 0.515625 L -0.25 0.328125 L -0.265625 0.328125 L -0.375 0.515625 L -0.453125 0.515625 L -0.3125 0.28125 L -0.46875 0 L -0.375 0 L -0.25 0.234375 Z M -0.109375 0 "/></g></g><g transform="translate(297.020088, 10.750855)"><g><path d="M -0.359375 0.078125 L -0.375 0.03125 C -0.375 0.0195312 -0.363281 0.0078125 -0.34375 0 C -0.320312 -0.0078125 -0.296875 -0.015625 -0.265625 -0.015625 C -0.171875 -0.015625 -0.125 0.0351562 -0.125 0.140625 L -0.125 0.453125 L -0.03125 0.453125 L -0.03125 0.53125 L -0.125 0.53125 L -0.125 0.640625 L -0.203125 0.65625 L -0.203125 0.53125 L -0.375 0.53125 L -0.375 0.453125 L -0.203125 0.453125 L -0.203125 0.15625 C -0.203125 0.09375 -0.226562 0.0625 -0.28125 0.0625 C -0.3125 0.0625 -0.335938 0.0664062 -0.359375 0.078125 Z M -0.359375 0.078125 "/></g></g></g></svg>